<svg xmlns="http://www.w3.org/2000/svg" xmlns:xlink="http://www.w3.org/1999/xlink" id="svg" version="1.1" width="400" height="400" viewBox="0 0 400 400">
  <g id="svgg">
    <path id="path0" d="M153.051 7.384 C 150.736 8.214,148.721 10.002,147.600 12.220 L 146.600 14.200 146.400 79.800 L 146.200 145.400 141.755 152.400 C 137.196 159.578,129.991 170.970,122.400 183.000 C 120.040 186.740,115.720 193.580,112.799 198.200 C 109.878 202.820,106.011 208.940,104.205 211.800 C 102.398 214.660,98.531 220.780,95.611 225.400 C 92.691 230.020,88.299 236.991,85.851 240.891 L 81.400 247.983 50.698 247.991 L 19.997 248.000 20.098 202.900 L 20.200 157.800 65.800 157.600 C 117.102 157.375,112.810 157.657,115.829 154.315 C 120.538 149.103,118.205 140.228,111.649 138.407 C 108.889 137.640,8.919 137.872,6.634 138.650 C 4.437 139.399,2.530 141.150,1.441 143.419 C 1.024 144.289,0.529 145.313,0.341 145.695 C 0.154 146.077,-0.000 171.828,-0.000 202.920 L -0.000 259.450 1.038 261.625 C 2.292 264.252,3.667 265.786,5.800 266.937 L 7.400 267.800 48.000 267.800 L 88.600 267.800 90.653 266.871 C 93.500 265.583,93.900 265.078,101.016 253.800 C 112.580 235.473,113.857 233.449,119.199 225.000 C 122.120 220.380,126.440 213.540,128.800 209.800 C 131.160 206.060,135.480 199.220,138.400 194.600 C 141.320 189.980,145.640 183.140,148.000 179.400 C 150.360 175.660,154.683 168.820,157.607 164.200 C 165.258 152.112,165.545 151.600,165.993 149.235 C 166.258 147.842,166.400 125.960,166.400 86.743 L 166.400 26.396 204.100 26.498 L 241.800 26.600 241.903 54.921 C 241.978 75.760,241.883 83.475,241.543 84.121 C 241.288 84.605,238.080 89.680,234.412 95.400 C 230.745 101.120,225.616 109.130,223.014 113.200 C 220.412 117.270,217.703 121.500,216.993 122.600 C 216.283 123.700,213.403 128.200,210.594 132.600 C 207.785 137.000,204.905 141.500,204.194 142.600 C 203.483 143.700,200.661 148.110,197.922 152.400 C 195.183 156.690,190.236 164.430,186.927 169.600 C 183.618 174.770,177.801 183.860,174.000 189.800 C 170.199 195.740,164.439 204.740,161.200 209.800 C 157.961 214.860,152.202 223.860,148.402 229.800 C 144.601 235.740,139.452 243.778,136.959 247.663 C 134.466 251.548,132.027 255.490,131.541 256.424 C 128.049 263.122,133.546 271.530,140.852 270.668 C 145.805 270.083,146.677 269.180,155.208 255.800 C 158.574 250.520,163.346 243.050,165.810 239.200 C 170.056 232.569,179.157 218.340,188.197 204.200 C 190.448 200.680,195.399 192.940,199.200 187.000 C 203.001 181.060,207.952 173.320,210.203 169.800 C 212.453 166.280,217.402 158.540,221.200 152.600 C 224.998 146.660,229.946 138.920,232.196 135.400 C 236.679 128.386,246.047 113.752,254.539 100.498 C 257.534 95.822,260.349 91.285,260.793 90.414 C 261.916 88.213,262.075 15.652,260.963 12.949 C 260.198 11.090,258.763 9.481,256.600 8.055 L 255.000 7.000 204.800 6.914 C 162.823 6.843,154.346 6.920,153.051 7.384 " stroke="none" fill="#046484" fill-rule="evenodd"/>
    <path id="path1" d="M179.300 6.700 C 192.885 6.758,215.115 6.758,228.700 6.700 C 242.285 6.642,231.170 6.594,204.000 6.594 C 176.830 6.594,165.715 6.642,179.300 6.700 M261.792 51.600 C 261.792 71.290,261.840 79.345,261.900 69.500 C 261.959 59.655,261.959 43.545,261.900 33.700 C 261.840 23.855,261.792 31.910,261.792 51.600 M241.790 55.200 C 241.790 70.930,241.839 77.365,241.900 69.500 C 241.960 61.635,241.960 48.765,241.900 40.900 C 241.839 33.035,241.790 39.470,241.790 55.200 M257.131 129.386 C 253.020 130.519,253.062 130.463,237.800 154.665 C 236.920 156.060,234.220 160.285,231.800 164.054 C 229.380 167.823,226.500 172.322,225.400 174.051 C 222.478 178.646,211.569 195.702,203.176 208.800 C 199.158 215.070,195.045 221.504,194.035 223.098 C 192.047 226.237,182.591 241.027,171.594 258.200 C 165.491 267.730,157.249 280.613,150.428 291.286 C 141.437 305.352,139.340 308.707,138.900 309.730 C 138.512 310.632,138.400 319.250,138.400 348.250 C 138.400 390.395,138.188 387.526,141.513 390.445 C 144.364 392.949,140.923 392.800,196.003 392.800 C 252.540 392.800,247.696 393.054,250.675 389.935 C 253.861 386.600,253.600 392.872,253.600 319.651 L 253.600 254.569 256.024 250.784 C 257.358 248.703,260.890 243.130,263.874 238.400 C 266.858 233.670,271.234 226.740,273.598 223.000 C 278.486 215.266,285.077 204.832,292.799 192.600 C 295.715 187.980,300.036 181.140,302.401 177.400 C 304.766 173.660,309.139 166.730,312.120 162.000 C 315.101 157.270,317.832 152.994,318.190 152.498 L 318.841 151.595 349.321 151.698 L 379.800 151.800 379.800 196.800 L 379.800 241.800 334.200 242.000 L 288.600 242.200 286.800 243.264 C 279.704 247.460,279.673 256.552,286.742 260.708 L 288.600 261.800 340.000 261.800 C 388.463 261.800,391.500 261.759,393.147 261.084 C 395.773 260.009,397.396 258.593,398.412 256.491 C 398.915 255.451,399.478 254.287,399.663 253.905 C 400.118 252.967,400.100 140.584,399.644 139.695 C 399.449 139.313,398.954 138.314,398.544 137.477 C 397.514 135.368,395.717 133.624,393.667 132.744 C 391.201 131.686,312.312 131.576,309.795 132.628 C 306.368 134.060,306.179 134.300,297.195 148.600 C 294.846 152.340,290.252 159.630,286.986 164.800 C 275.907 182.341,270.456 190.981,265.284 199.200 C 259.262 208.769,250.785 222.197,242.050 236.000 C 238.639 241.390,235.388 246.700,234.824 247.799 L 233.800 249.798 233.695 311.501 L 233.590 373.204 195.895 373.102 L 158.200 373.000 158.097 344.652 L 157.995 316.303 158.873 314.852 C 159.720 313.451,165.033 305.121,178.808 283.600 C 189.808 266.414,197.907 253.757,202.996 245.800 C 205.670 241.620,210.622 233.880,214.000 228.600 C 217.378 223.320,222.383 215.490,225.122 211.200 C 227.861 206.910,230.683 202.500,231.394 201.400 C 232.105 200.300,234.985 195.800,237.794 191.400 C 240.603 187.000,243.483 182.500,244.194 181.400 C 244.905 180.300,247.785 175.800,250.594 171.400 C 253.403 167.000,256.283 162.500,256.994 161.400 C 269.324 142.315,269.600 141.819,269.600 138.726 C 269.600 132.252,263.451 127.645,257.131 129.386 M34.131 137.900 C 48.173 137.958,71.033 137.958,84.931 137.900 C 98.829 137.842,87.340 137.794,59.400 137.794 C 31.460 137.794,20.089 137.842,34.131 137.900 M115.375 154.900 L 114.200 156.200 115.500 155.025 C 116.712 153.930,116.984 153.600,116.675 153.600 C 116.606 153.600,116.021 154.185,115.375 154.900 M139.105 271.083 C 139.602 271.179,140.322 271.175,140.705 271.075 C 141.087 270.975,140.680 270.896,139.800 270.901 C 138.920 270.905,138.607 270.987,139.105 271.083" stroke="none" fill="#15bcac" fill-rule="evenodd"/>
    <path id="path4" d="M152.000 6.911 C 150.077 7.841,146.800 10.848,146.800 11.682 C 146.800 11.959,147.232 11.550,147.761 10.772 C 148.651 9.462,150.692 7.859,152.600 6.972 C 153.072 6.752,174.116 6.517,204.000 6.397 L 254.600 6.194 204.200 6.117 L 153.800 6.040 152.000 6.911 M259.215 9.432 C 259.977 10.329,260.828 11.409,261.106 11.832 C 261.384 12.254,261.355 12.060,261.041 11.400 C 260.728 10.740,259.877 9.660,259.150 9.000 L 257.829 7.800 259.215 9.432 M261.668 13.400 C 261.662 13.840,261.811 14.560,262.000 15.000 C 262.438 16.019,262.438 14.968,262.000 13.600 C 261.743 12.796,261.677 12.757,261.668 13.400 M145.795 80.000 C 145.795 115.750,145.842 130.375,145.900 112.500 C 145.958 94.625,145.958 65.375,145.900 47.500 C 145.842 29.625,145.795 44.250,145.795 80.000 M262.591 51.400 C 262.591 70.760,262.640 78.739,262.700 69.130 C 262.760 59.522,262.760 43.682,262.700 33.930 C 262.640 24.179,262.591 32.040,262.591 51.400 M166.800 27.098 C 166.800 27.264,183.542 27.353,204.005 27.296 L 241.211 27.192 241.105 55.576 C 241.047 71.187,241.136 83.824,241.303 83.657 C 241.469 83.491,241.559 70.675,241.503 55.177 L 241.400 27.000 204.100 26.898 C 183.585 26.842,166.800 26.932,166.800 27.098 M237.125 89.700 C 234.595 93.528,234.306 94.000,234.497 94.000 C 234.664 94.000,235.759 92.423,238.177 88.700 C 238.570 88.095,238.807 87.600,238.703 87.600 C 238.598 87.600,237.889 88.545,237.125 89.700 M261.678 89.250 C 261.448 90.158,261.407 90.743,261.588 90.550 C 261.961 90.152,262.560 87.600,262.280 87.600 C 262.180 87.600,261.909 88.343,261.678 89.250 M260.164 92.529 C 259.709 93.228,259.015 94.295,258.622 94.900 C 258.229 95.505,257.993 96.000,258.097 96.000 C 258.366 96.000,261.286 91.553,261.124 91.391 C 261.051 91.317,260.618 91.829,260.164 92.529 M230.725 99.700 C 228.195 103.528,227.906 104.000,228.097 104.000 C 228.264 104.000,229.359 102.423,231.777 98.700 C 232.170 98.095,232.407 97.600,232.303 97.600 C 232.198 97.600,231.489 98.545,230.725 99.700 M254.325 101.700 C 251.795 105.528,251.506 106.000,251.697 106.000 C 251.864 106.000,252.959 104.423,255.377 100.700 C 255.770 100.095,256.007 99.600,255.903 99.600 C 255.798 99.600,255.089 100.545,254.325 101.700 M224.325 109.700 C 221.795 113.528,221.506 114.000,221.697 114.000 C 221.864 114.000,222.959 112.423,225.377 108.700 C 225.770 108.095,226.007 107.600,225.903 107.600 C 225.798 107.600,225.089 108.545,224.325 109.700 M247.925 111.700 C 245.395 115.528,245.106 116.000,245.297 116.000 C 245.464 116.000,246.559 114.423,248.977 110.700 C 249.370 110.095,249.607 109.600,249.503 109.600 C 249.398 109.600,248.689 110.545,247.925 111.700 M217.925 119.700 C 215.395 123.528,215.106 124.000,215.297 124.000 C 215.464 124.000,216.559 122.423,218.977 118.700 C 219.370 118.095,219.607 117.600,219.503 117.600 C 219.398 117.600,218.689 118.545,217.925 119.700 M241.525 121.700 C 238.995 125.528,238.706 126.000,238.897 126.000 C 239.064 126.000,240.159 124.423,242.577 120.700 C 242.970 120.095,243.207 119.600,243.103 119.600 C 242.998 119.600,242.289 120.545,241.525 121.700 M211.525 129.700 C 208.995 133.528,208.706 134.000,208.897 134.000 C 209.064 134.000,210.159 132.423,212.577 128.700 C 212.970 128.095,213.207 127.600,213.103 127.600 C 212.998 127.600,212.289 128.545,211.525 129.700 M257.700 128.676 C 258.085 128.776,258.715 128.776,259.100 128.676 C 259.485 128.575,259.170 128.493,258.400 128.493 C 257.630 128.493,257.315 128.575,257.700 128.676 M254.961 129.429 C 254.280 129.765,253.020 130.796,252.161 131.720 L 250.600 133.400 252.205 131.911 C 253.088 131.093,254.528 130.065,255.405 129.627 C 256.282 129.190,256.820 128.829,256.600 128.825 C 256.380 128.821,255.643 129.093,254.961 129.429 M235.125 131.700 C 232.595 135.528,232.306 136.000,232.497 136.000 C 232.664 136.000,233.759 134.423,236.177 130.700 C 236.570 130.095,236.807 129.600,236.703 129.600 C 236.598 129.600,235.889 130.545,235.125 131.700 M310.714 131.528 C 310.092 131.775,359.562 131.749,382.400 131.491 C 387.570 131.433,373.710 131.356,351.600 131.321 C 329.490 131.285,311.091 131.379,310.714 131.528 M307.301 133.173 C 305.682 134.346,304.317 135.945,303.011 138.200 C 302.172 139.647,302.927 138.770,304.696 136.240 C 305.409 135.221,306.840 133.850,307.875 133.194 C 308.910 132.537,309.568 132.000,309.338 132.000 C 309.108 132.000,308.192 132.528,307.301 133.173 M396.411 134.032 C 397.187 134.785,398.141 135.850,398.530 136.400 C 398.919 136.950,399.112 137.130,398.960 136.800 C 398.385 135.557,396.735 133.594,395.884 133.138 C 395.325 132.839,395.518 133.167,396.411 134.032 M249.846 134.600 C 249.491 135.150,248.909 136.095,248.553 136.700 L 247.905 137.800 248.710 136.826 C 249.660 135.676,250.921 133.600,250.669 133.600 C 250.571 133.600,250.201 134.050,249.846 134.600 M7.338 137.506 C 6.923 137.770,59.191 137.763,96.800 137.494 C 104.830 137.437,88.090 137.350,59.600 137.301 C 31.110 137.252,7.592 137.344,7.338 137.506 M205.125 139.700 C 202.595 143.528,202.306 144.000,202.497 144.000 C 202.664 144.000,203.759 142.423,206.177 138.700 C 206.570 138.095,206.807 137.600,206.703 137.600 C 206.598 137.600,205.889 138.545,205.125 139.700 M270.060 138.450 C 270.027 139.028,269.911 140.108,269.801 140.850 L 269.603 142.200 270.024 140.857 C 270.255 140.119,270.372 139.039,270.282 138.457 L 270.120 137.400 270.060 138.450 M3.180 139.866 C 2.288 140.672,1.373 141.707,1.147 142.166 C 0.920 142.624,1.207 142.422,1.784 141.716 C 2.361 141.010,3.410 139.977,4.116 139.421 C 4.822 138.864,5.266 138.407,5.101 138.404 C 4.937 138.402,4.072 139.059,3.180 139.866 M228.726 141.700 C 226.669 144.793,225.215 147.253,225.710 146.800 C 225.902 146.625,230.136 140.235,230.944 138.900 C 231.111 138.625,231.174 138.400,231.084 138.400 C 230.994 138.400,229.933 139.885,228.726 141.700 M116.000 140.600 C 116.746 141.370,117.447 142.000,117.557 142.000 C 117.667 142.000,117.146 141.370,116.400 140.600 C 115.654 139.830,114.953 139.200,114.843 139.200 C 114.733 139.200,115.254 139.830,116.000 140.600 M299.952 142.900 C 299.690 143.395,299.215 144.250,298.896 144.800 C 298.339 145.759,298.343 145.767,298.988 145.000 C 299.786 144.052,300.905 142.000,300.624 142.000 C 300.516 142.000,300.214 142.405,299.952 142.900 M243.753 144.100 C 242.376 146.436,242.286 146.635,242.987 145.800 C 243.800 144.832,244.500 143.600,244.238 143.600 C 244.133 143.600,243.915 143.825,243.753 144.100 M267.908 144.900 C 267.033 146.249,266.248 147.856,266.687 147.400 C 267.248 146.817,268.898 144.000,268.679 144.000 C 268.576 144.000,268.229 144.405,267.908 144.900 M144.137 147.100 C 143.486 148.145,142.628 149.495,142.231 150.100 C 141.833 150.705,141.593 151.200,141.697 151.200 C 141.905 151.200,144.384 147.538,145.149 146.100 C 145.996 144.509,145.357 145.140,144.137 147.100 M166.467 148.942 C 166.430 149.790,165.953 151.374,165.407 152.461 C 164.860 153.549,164.570 154.342,164.760 154.225 C 165.595 153.709,166.837 150.253,166.689 148.858 L 166.534 147.400 166.467 148.942 M198.725 149.700 C 196.195 153.528,195.906 154.000,196.097 154.000 C 196.264 154.000,197.359 152.423,199.777 148.700 C 200.170 148.095,200.407 147.600,200.303 147.600 C 200.198 147.600,199.489 148.545,198.725 149.700 M223.125 150.500 C 220.595 154.328,220.306 154.800,220.497 154.800 C 220.664 154.800,221.759 153.223,224.177 149.500 C 224.570 148.895,224.807 148.400,224.703 148.400 C 224.598 148.400,223.889 149.345,223.125 150.500 M118.650 150.050 C 118.317 151.717,118.640 152.040,119.000 150.400 C 119.152 149.709,119.193 149.059,119.091 148.958 C 118.989 148.856,118.791 149.347,118.650 150.050 M294.646 151.400 C 294.291 151.950,293.709 152.895,293.353 153.500 L 292.705 154.600 293.510 153.626 C 294.460 152.476,295.721 150.400,295.469 150.400 C 295.371 150.400,295.001 150.850,294.646 151.400 M237.737 153.500 C 237.086 154.545,236.228 155.895,235.831 156.500 C 235.433 157.105,235.193 157.600,235.297 157.600 C 235.505 157.600,237.984 153.938,238.749 152.500 C 239.596 150.909,238.957 151.540,237.737 153.500 M117.050 153.597 C 116.469 154.475,115.275 155.669,114.397 156.250 C 112.522 157.490,112.255 157.967,114.018 156.926 C 115.393 156.114,116.764 154.725,117.794 153.100 C 118.889 151.374,118.229 151.814,117.050 153.597 M317.523 154.098 C 315.981 156.425,315.092 158.000,315.322 158.000 C 315.404 158.000,316.262 156.740,317.228 155.200 L 318.985 152.400 349.093 152.400 L 379.200 152.400 379.200 196.798 L 379.200 241.196 335.300 241.301 L 291.400 241.405 335.400 241.403 L 379.400 241.400 379.400 196.800 L 379.400 152.200 349.158 152.098 L 318.917 151.995 317.523 154.098 M262.246 153.800 C 261.891 154.350,261.309 155.295,260.953 155.900 L 260.305 157.000 261.110 156.026 C 262.060 154.876,263.321 152.800,263.069 152.800 C 262.971 152.800,262.601 153.250,262.246 153.800 M138.725 155.700 C 136.195 159.528,135.906 160.000,136.097 160.000 C 136.264 160.000,137.359 158.423,139.777 154.700 C 140.170 154.095,140.407 153.600,140.303 153.600 C 140.198 153.600,139.489 154.545,138.725 155.700 M161.921 158.300 C 159.779 161.560,159.515 162.000,159.701 162.000 C 159.876 162.000,160.441 161.195,162.578 157.900 C 162.971 157.295,163.205 156.800,163.099 156.800 C 162.993 156.800,162.463 157.475,161.921 158.300 M192.325 159.700 C 189.795 163.528,189.506 164.000,189.697 164.000 C 189.864 164.000,190.959 162.423,193.377 158.700 C 193.770 158.095,194.007 157.600,193.903 157.600 C 193.798 157.600,193.089 158.545,192.325 159.700 M290.153 158.500 C 288.776 160.836,288.686 161.035,289.387 160.200 C 290.200 159.232,290.900 158.000,290.638 158.000 C 290.533 158.000,290.315 158.225,290.153 158.500 M20.667 158.667 C 20.334 159.000,20.310 246.100,20.643 246.967 C 20.862 247.538,23.847 247.591,50.943 247.504 L 81.000 247.408 51.000 247.204 L 21.000 247.000 21.000 202.700 C 21.000 178.335,20.985 158.400,20.967 158.400 C 20.948 158.400,20.813 158.520,20.667 158.667 M216.725 160.500 C 214.195 164.328,213.906 164.800,214.097 164.800 C 214.264 164.800,215.359 163.223,217.777 159.500 C 218.170 158.895,218.407 158.400,218.303 158.400 C 218.198 158.400,217.489 159.345,216.725 160.500 M312.953 161.300 C 311.576 163.636,311.486 163.835,312.187 163.000 C 313.000 162.032,313.700 160.800,313.438 160.800 C 313.333 160.800,313.115 161.025,312.953 161.300 M134.321 162.700 C 132.179 165.960,131.915 166.400,132.101 166.400 C 132.276 166.400,132.841 165.595,134.978 162.300 C 135.371 161.695,135.605 161.200,135.499 161.200 C 135.393 161.200,134.863 161.875,134.321 162.700 M255.922 163.700 C 254.497 165.850,253.298 167.977,253.737 167.575 C 253.946 167.384,256.389 163.676,257.344 162.100 C 258.220 160.655,257.118 161.894,255.922 163.700 M231.446 163.400 C 231.091 163.950,230.509 164.895,230.153 165.500 L 229.505 166.600 230.310 165.626 C 231.260 164.476,232.521 162.400,232.269 162.400 C 232.171 162.400,231.801 162.850,231.446 163.400 M286.352 164.500 C 286.090 164.995,285.615 165.850,285.296 166.400 C 284.739 167.359,284.743 167.367,285.388 166.600 C 286.186 165.652,287.305 163.600,287.024 163.600 C 286.916 163.600,286.614 164.005,286.352 164.500 M157.121 165.900 C 154.979 169.160,154.715 169.600,154.901 169.600 C 155.076 169.600,155.641 168.795,157.778 165.500 C 158.171 164.895,158.405 164.400,158.299 164.400 C 158.193 164.400,157.663 165.075,157.121 165.900 M185.925 169.700 C 183.395 173.528,183.106 174.000,183.297 174.000 C 183.464 174.000,184.559 172.423,186.977 168.700 C 187.370 168.095,187.607 167.600,187.503 167.600 C 187.398 167.600,186.689 168.545,185.925 169.700 M210.325 170.500 C 207.795 174.328,207.506 174.800,207.697 174.800 C 207.864 174.800,208.959 173.223,211.377 169.500 C 211.770 168.895,212.007 168.400,211.903 168.400 C 211.798 168.400,211.089 169.345,210.325 170.500 M129.125 170.900 C 126.595 174.728,126.306 175.200,126.497 175.200 C 126.664 175.200,127.759 173.623,130.177 169.900 C 130.570 169.295,130.807 168.800,130.703 168.800 C 130.598 168.800,129.889 169.745,129.125 170.900 M307.108 170.500 C 306.233 171.849,305.448 173.456,305.887 173.000 C 306.448 172.417,308.098 169.600,307.879 169.600 C 307.776 169.600,307.429 170.005,307.108 170.500 M224.937 173.500 C 224.286 174.545,223.428 175.895,223.031 176.500 C 222.633 177.105,222.393 177.600,222.497 177.600 C 222.705 177.600,225.184 173.938,225.949 172.500 C 226.796 170.909,226.157 171.540,224.937 173.500 M152.321 173.500 C 150.179 176.760,149.915 177.200,150.101 177.200 C 150.276 177.200,150.841 176.395,152.978 173.100 C 153.371 172.495,153.605 172.000,153.499 172.000 C 153.393 172.000,152.863 172.675,152.321 173.500 M249.446 173.800 C 249.091 174.350,248.509 175.295,248.153 175.900 L 247.505 177.000 248.310 176.026 C 249.260 174.876,250.521 172.800,250.269 172.800 C 250.171 172.800,249.801 173.250,249.446 173.800 M280.553 173.700 C 279.176 176.036,279.086 176.235,279.787 175.400 C 280.600 174.432,281.300 173.200,281.038 173.200 C 280.933 173.200,280.715 173.425,280.553 173.700 M303.353 176.500 C 301.976 178.836,301.886 179.035,302.587 178.200 C 303.400 177.232,304.100 176.000,303.838 176.000 C 303.733 176.000,303.515 176.225,303.353 176.500 M124.325 178.500 C 121.795 182.328,121.506 182.800,121.697 182.800 C 121.864 182.800,122.959 181.223,125.377 177.500 C 125.770 176.895,126.007 176.400,125.903 176.400 C 125.798 176.400,125.089 177.345,124.325 178.500 M179.928 179.100 C 177.450 182.838,176.580 184.270,177.072 183.800 C 177.828 183.078,182.169 176.400,181.882 176.400 C 181.792 176.400,180.912 177.615,179.928 179.100 M203.925 180.500 C 201.395 184.328,201.106 184.800,201.297 184.800 C 201.464 184.800,202.559 183.223,204.977 179.500 C 205.370 178.895,205.607 178.400,205.503 178.400 C 205.398 178.400,204.689 179.345,203.925 180.500 M276.752 179.700 C 276.490 180.195,276.015 181.050,275.696 181.600 C 275.139 182.559,275.143 182.567,275.788 181.800 C 276.586 180.852,277.705 178.800,277.424 178.800 C 277.316 178.800,277.014 179.205,276.752 179.700 M146.721 182.300 C 144.579 185.560,144.315 186.000,144.501 186.000 C 144.676 186.000,145.241 185.195,147.378 181.900 C 147.771 181.295,148.005 180.800,147.899 180.800 C 147.793 180.800,147.263 181.475,146.721 182.300 M243.122 183.700 C 241.697 185.850,240.498 187.977,240.937 187.575 C 241.146 187.384,243.589 183.676,244.544 182.100 C 245.420 180.655,244.318 181.894,243.122 183.700 M218.646 183.400 C 218.291 183.950,217.709 184.895,217.353 185.500 L 216.705 186.600 217.510 185.626 C 218.460 184.476,219.721 182.400,219.469 182.400 C 219.371 182.400,219.001 182.850,218.646 183.400 M297.508 185.700 C 296.633 187.049,295.848 188.656,296.287 188.200 C 296.848 187.617,298.498 184.800,298.279 184.800 C 298.176 184.800,297.829 185.205,297.508 185.700 M119.121 186.700 C 116.979 189.960,116.715 190.400,116.901 190.400 C 117.076 190.400,117.641 189.595,119.778 186.300 C 120.171 185.695,120.405 185.200,120.299 185.200 C 120.193 185.200,119.663 185.875,119.121 186.700 M142.325 189.300 C 139.795 193.128,139.506 193.600,139.697 193.600 C 139.864 193.600,140.959 192.023,143.377 188.300 C 143.770 187.695,144.007 187.200,143.903 187.200 C 143.798 187.200,143.089 188.145,142.325 189.300 M271.446 188.200 C 271.091 188.750,270.509 189.695,270.153 190.300 L 269.505 191.400 270.310 190.426 C 271.260 189.276,272.521 187.200,272.269 187.200 C 272.171 187.200,271.801 187.650,271.446 188.200 M173.125 189.700 C 170.595 193.528,170.306 194.000,170.497 194.000 C 170.664 194.000,171.759 192.423,174.177 188.700 C 174.570 188.095,174.807 187.600,174.703 187.600 C 174.598 187.600,173.889 188.545,173.125 189.700 M197.525 190.500 C 194.995 194.328,194.706 194.800,194.897 194.800 C 195.064 194.800,196.159 193.223,198.577 189.500 C 198.970 188.895,199.207 188.400,199.103 188.400 C 198.998 188.400,198.289 189.345,197.525 190.500 M293.753 191.700 C 292.376 194.036,292.286 194.235,292.987 193.400 C 293.800 192.432,294.500 191.200,294.238 191.200 C 294.133 191.200,293.915 191.425,293.753 191.700 M212.553 192.900 C 211.176 195.236,211.086 195.435,211.787 194.600 C 212.600 193.632,213.300 192.400,213.038 192.400 C 212.933 192.400,212.715 192.625,212.553 192.900 M114.321 194.300 C 112.179 197.560,111.915 198.000,112.101 198.000 C 112.276 198.000,112.841 197.195,114.978 193.900 C 115.371 193.295,115.605 192.800,115.499 192.800 C 115.393 192.800,114.863 193.475,114.321 194.300 M236.953 193.300 C 235.576 195.636,235.486 195.835,236.187 195.000 C 237.000 194.032,237.700 192.800,237.438 192.800 C 237.333 192.800,237.115 193.025,236.953 193.300 M267.152 194.900 C 266.890 195.395,266.415 196.250,266.096 196.800 C 265.539 197.759,265.543 197.767,266.188 197.000 C 266.986 196.052,268.105 194.000,267.824 194.000 C 267.716 194.000,267.414 194.405,267.152 194.900 M137.121 197.500 C 134.979 200.760,134.715 201.200,134.901 201.200 C 135.076 201.200,135.641 200.395,137.778 197.100 C 138.171 196.495,138.405 196.000,138.299 196.000 C 138.193 196.000,137.663 196.675,137.121 197.500 M167.128 199.100 C 164.650 202.838,163.780 204.270,164.272 203.800 C 165.028 203.078,169.369 196.400,169.082 196.400 C 168.992 196.400,168.112 197.615,167.128 199.100 M191.125 200.500 C 188.595 204.328,188.306 204.800,188.497 204.800 C 188.664 204.800,189.759 203.223,192.177 199.500 C 192.570 198.895,192.807 198.400,192.703 198.400 C 192.598 198.400,191.889 199.345,191.125 200.500 M287.908 200.900 C 287.033 202.249,286.248 203.856,286.687 203.400 C 287.248 202.817,288.898 200.000,288.679 200.000 C 288.576 200.000,288.229 200.405,287.908 200.900 M109.521 201.900 C 107.379 205.160,107.115 205.600,107.301 205.600 C 107.476 205.600,108.041 204.795,110.178 201.500 C 110.571 200.895,110.805 200.400,110.699 200.400 C 110.593 200.400,110.063 201.075,109.521 201.900 M206.537 202.300 C 205.886 203.345,205.028 204.695,204.631 205.300 C 204.233 205.905,203.993 206.400,204.097 206.400 C 204.305 206.400,206.784 202.738,207.549 201.300 C 208.396 199.709,207.757 200.340,206.537 202.300 M230.322 203.700 C 228.897 205.850,227.698 207.977,228.137 207.575 C 228.346 207.384,230.789 203.676,231.744 202.100 C 232.620 200.655,231.518 201.894,230.322 203.700 M132.725 204.500 C 130.195 208.328,129.906 208.800,130.097 208.800 C 130.264 208.800,131.359 207.223,133.777 203.500 C 134.170 202.895,134.407 202.400,134.303 202.400 C 134.198 202.400,133.489 203.345,132.725 204.500 M261.846 203.400 C 261.491 203.950,260.909 204.895,260.553 205.500 L 259.905 206.600 260.710 205.626 C 261.660 204.476,262.921 202.400,262.669 202.400 C 262.571 202.400,262.201 202.850,261.846 203.400 M283.846 207.400 C 283.491 207.950,282.909 208.895,282.553 209.500 L 281.905 210.600 282.710 209.626 C 283.660 208.476,284.921 206.400,284.669 206.400 C 284.571 206.400,284.201 206.850,283.846 207.400 M185.128 209.900 C 182.650 213.638,181.780 215.070,182.272 214.600 C 183.028 213.878,187.369 207.200,187.082 207.200 C 186.992 207.200,186.112 208.415,185.128 209.900 M160.721 209.100 C 158.579 212.360,158.315 212.800,158.501 212.800 C 158.676 212.800,159.241 211.995,161.378 208.700 C 161.771 208.095,162.005 207.600,161.899 207.600 C 161.793 207.600,161.263 208.275,160.721 209.100 M104.721 209.500 C 102.579 212.760,102.315 213.200,102.501 213.200 C 102.676 213.200,103.241 212.395,105.378 209.100 C 105.771 208.495,106.005 208.000,105.899 208.000 C 105.793 208.000,105.263 208.675,104.721 209.500 M257.353 210.500 C 255.976 212.836,255.886 213.035,256.587 212.200 C 257.400 211.232,258.100 210.000,257.838 210.000 C 257.733 210.000,257.515 210.225,257.353 210.500 M127.521 212.700 C 125.379 215.960,125.115 216.400,125.301 216.400 C 125.476 216.400,126.041 215.595,128.178 212.300 C 128.571 211.695,128.805 211.200,128.699 211.200 C 128.593 211.200,128.063 211.875,127.521 212.700 M199.753 212.900 C 198.376 215.236,198.286 215.435,198.987 214.600 C 199.800 213.632,200.500 212.400,200.238 212.400 C 200.133 212.400,199.915 212.625,199.753 212.900 M224.153 213.300 C 222.776 215.636,222.686 215.835,223.387 215.000 C 224.200 214.032,224.900 212.800,224.638 212.800 C 224.533 212.800,224.315 213.025,224.153 213.300 M278.308 216.100 C 277.433 217.449,276.648 219.056,277.087 218.600 C 277.648 218.017,279.298 215.200,279.079 215.200 C 278.976 215.200,278.629 215.605,278.308 216.100 M99.921 217.100 C 97.779 220.360,97.515 220.800,97.701 220.800 C 97.876 220.800,98.441 219.995,100.578 216.700 C 100.971 216.095,101.205 215.600,101.099 215.600 C 100.993 215.600,100.463 216.275,99.921 217.100 M253.552 216.500 C 253.290 216.995,252.815 217.850,252.496 218.400 C 251.939 219.359,251.943 219.367,252.588 218.600 C 253.386 217.652,254.505 215.600,254.224 215.600 C 254.116 215.600,253.814 216.005,253.552 216.500 M154.328 219.100 C 151.850 222.838,150.980 224.270,151.472 223.800 C 152.228 223.078,156.569 216.400,156.282 216.400 C 156.192 216.400,155.312 217.615,154.328 219.100 M178.721 219.900 C 176.579 223.160,176.315 223.600,176.501 223.600 C 176.676 223.600,177.241 222.795,179.378 219.500 C 179.771 218.895,180.005 218.400,179.899 218.400 C 179.793 218.400,179.263 219.075,178.721 219.900 M122.721 220.300 C 120.579 223.560,120.315 224.000,120.501 224.000 C 120.676 224.000,121.241 223.195,123.378 219.900 C 123.771 219.295,124.005 218.800,123.899 218.800 C 123.793 218.800,123.263 219.475,122.721 220.300 M193.737 222.300 C 193.086 223.345,192.228 224.695,191.831 225.300 C 191.433 225.905,191.193 226.400,191.297 226.400 C 191.505 226.400,193.984 222.738,194.749 221.300 C 195.596 219.709,194.957 220.340,193.737 222.300 M217.522 223.700 C 216.097 225.850,214.898 227.977,215.337 227.575 C 215.546 227.384,217.989 223.676,218.944 222.100 C 219.820 220.655,218.718 221.894,217.522 223.700 M274.246 222.600 C 273.891 223.150,273.309 224.095,272.953 224.700 L 272.305 225.800 273.110 224.826 C 274.060 223.676,275.321 221.600,275.069 221.600 C 274.971 221.600,274.601 222.050,274.246 222.600 M95.121 224.700 C 92.979 227.960,92.715 228.400,92.901 228.400 C 93.076 228.400,93.641 227.595,95.778 224.300 C 96.171 223.695,96.405 223.200,96.299 223.200 C 96.193 223.200,95.663 223.875,95.121 224.700 M247.753 225.700 C 246.376 228.036,246.286 228.235,246.987 227.400 C 247.800 226.432,248.500 225.200,248.238 225.200 C 248.133 225.200,247.915 225.425,247.753 225.700 M117.921 227.900 C 115.779 231.160,115.515 231.600,115.701 231.600 C 115.876 231.600,116.441 230.795,118.578 227.500 C 118.971 226.895,119.205 226.400,119.099 226.400 C 118.993 226.400,118.463 227.075,117.921 227.900 M172.725 229.300 C 170.195 233.128,169.906 233.600,170.097 233.600 C 170.264 233.600,171.359 232.023,173.777 228.300 C 174.170 227.695,174.407 227.200,174.303 227.200 C 174.198 227.200,173.489 228.145,172.725 229.300 M147.921 229.100 C 145.779 232.360,145.515 232.800,145.701 232.800 C 145.876 232.800,146.441 231.995,148.578 228.700 C 148.971 228.095,149.205 227.600,149.099 227.600 C 148.993 227.600,148.463 228.275,147.921 229.100 M268.708 231.300 C 267.833 232.649,267.048 234.256,267.487 233.800 C 268.048 233.217,269.698 230.400,269.479 230.400 C 269.376 230.400,269.029 230.805,268.708 231.300 M90.321 232.300 C 88.179 235.560,87.915 236.000,88.101 236.000 C 88.276 236.000,88.841 235.195,90.978 231.900 C 91.371 231.295,91.605 230.800,91.499 230.800 C 91.393 230.800,90.863 231.475,90.321 232.300 M243.952 231.700 C 243.690 232.195,243.215 233.050,242.896 233.600 C 242.339 234.559,242.343 234.567,242.988 233.800 C 243.786 232.852,244.905 230.800,244.624 230.800 C 244.516 230.800,244.214 231.205,243.952 231.700 M187.446 232.200 C 187.091 232.750,186.509 233.695,186.153 234.300 L 185.505 235.400 186.310 234.426 C 187.260 233.276,188.521 231.200,188.269 231.200 C 188.171 231.200,187.801 231.650,187.446 232.200 M211.353 233.300 C 209.976 235.636,209.886 235.835,210.587 235.000 C 211.400 234.032,212.100 232.800,211.838 232.800 C 211.733 232.800,211.515 233.025,211.353 233.300 M113.121 235.500 C 110.979 238.760,110.715 239.200,110.901 239.200 C 111.076 239.200,111.641 238.395,113.778 235.100 C 114.171 234.495,114.405 234.000,114.299 234.000 C 114.193 234.000,113.663 234.675,113.121 235.500 M141.528 239.100 C 139.050 242.838,138.180 244.270,138.672 243.800 C 139.428 243.078,143.769 236.400,143.482 236.400 C 143.392 236.400,142.512 237.615,141.528 239.100 M264.646 237.800 C 264.291 238.350,263.709 239.295,263.353 239.900 L 262.705 241.000 263.510 240.026 C 264.460 238.876,265.721 236.800,265.469 236.800 C 265.371 236.800,265.001 237.250,264.646 237.800 M166.325 239.300 C 163.795 243.128,163.506 243.600,163.697 243.600 C 163.864 243.600,164.959 242.023,167.377 238.300 C 167.770 237.695,168.007 237.200,167.903 237.200 C 167.798 237.200,167.089 238.145,166.325 239.300 M85.521 239.900 C 83.379 243.160,83.115 243.600,83.301 243.600 C 83.476 243.600,84.041 242.795,86.178 239.500 C 86.571 238.895,86.805 238.400,86.699 238.400 C 86.593 238.400,86.063 239.075,85.521 239.900 M238.646 240.200 C 238.291 240.750,237.709 241.695,237.353 242.300 L 236.705 243.400 237.510 242.426 C 238.460 241.276,239.721 239.200,239.469 239.200 C 239.371 239.200,239.001 239.650,238.646 240.200 M180.937 242.300 C 180.286 243.345,179.428 244.695,179.031 245.300 C 178.633 245.905,178.393 246.400,178.497 246.400 C 178.705 246.400,181.184 242.738,181.949 241.300 C 182.796 239.709,182.157 240.340,180.937 242.300 M108.321 243.100 C 106.179 246.360,105.915 246.800,106.101 246.800 C 106.276 246.800,106.841 245.995,108.978 242.700 C 109.371 242.095,109.605 241.600,109.499 241.600 C 109.393 241.600,108.863 242.275,108.321 243.100 M204.722 243.700 C 203.297 245.850,202.098 247.977,202.537 247.575 C 202.746 247.384,205.189 243.676,206.144 242.100 C 207.020 240.655,205.918 241.894,204.722 243.700 M284.400 244.126 C 283.850 244.621,283.139 245.380,282.819 245.813 C 282.499 246.246,282.994 245.888,283.919 245.019 C 285.435 243.593,285.801 243.175,285.500 243.213 C 285.445 243.220,284.950 243.630,284.400 244.126 M259.108 246.500 C 258.233 247.849,257.448 249.456,257.887 249.000 C 258.448 248.417,260.098 245.600,259.879 245.600 C 259.776 245.600,259.429 246.005,259.108 246.500 M135.525 248.500 C 132.995 252.328,132.706 252.800,132.897 252.800 C 133.064 252.800,134.159 251.223,136.577 247.500 C 136.970 246.895,137.207 246.400,137.103 246.400 C 136.998 246.400,136.289 247.345,135.525 248.500 M159.925 249.300 C 157.395 253.128,157.106 253.600,157.297 253.600 C 157.464 253.600,158.559 252.023,160.977 248.300 C 161.370 247.695,161.607 247.200,161.503 247.200 C 161.398 247.200,160.689 248.145,159.925 249.300 M281.000 249.600 C 280.848 250.291,280.807 250.941,280.909 251.042 C 281.011 251.144,281.209 250.653,281.350 249.950 C 281.491 249.247,281.531 248.598,281.441 248.508 C 281.350 248.417,281.152 248.909,281.000 249.600 M103.521 250.700 C 101.379 253.960,101.115 254.400,101.301 254.400 C 101.476 254.400,102.041 253.595,104.178 250.300 C 104.571 249.695,104.805 249.200,104.699 249.200 C 104.593 249.200,104.063 249.875,103.521 250.700 M233.299 310.900 L 233.200 372.400 196.000 372.400 L 158.800 372.400 158.800 344.335 L 158.800 316.270 159.817 314.535 C 160.376 313.581,160.744 312.800,160.634 312.800 C 160.524 312.800,159.976 313.581,159.417 314.535 L 158.400 316.270 158.400 344.535 L 158.400 372.800 195.813 372.800 C 225.374 372.800,233.265 372.695,233.415 372.300 C 233.520 372.025,233.559 344.260,233.501 310.600 L 233.397 249.400 233.299 310.900 M199.521 251.900 C 197.379 255.160,197.115 255.600,197.301 255.600 C 197.476 255.600,198.041 254.795,200.178 251.500 C 200.571 250.895,200.805 250.400,200.699 250.400 C 200.593 250.400,200.063 251.075,199.521 251.900 M174.646 252.200 C 174.291 252.750,173.709 253.695,173.353 254.300 L 172.705 255.400 173.510 254.426 C 174.460 253.276,175.721 251.200,175.469 251.200 C 175.371 251.200,175.001 251.650,174.646 252.200 M254.833 253.347 L 254.000 254.694 254.098 319.247 L 254.195 383.800 254.398 319.000 C 254.592 256.606,254.628 254.159,255.346 253.100 C 255.756 252.495,255.996 252.000,255.879 252.000 C 255.761 252.000,255.291 252.606,254.833 253.347 M280.828 253.233 C 280.844 253.765,281.019 254.560,281.219 255.000 C 281.471 255.558,281.507 255.315,281.338 254.200 C 281.055 252.343,280.787 251.836,280.828 253.233 M130.586 256.427 C 130.237 257.102,130.007 257.814,130.076 258.009 C 130.144 258.204,130.502 257.651,130.870 256.782 C 131.665 254.906,131.487 254.684,130.586 256.427 M98.721 258.300 C 96.579 261.560,96.315 262.000,96.501 262.000 C 96.676 262.000,97.241 261.195,99.378 257.900 C 99.771 257.295,100.005 256.800,99.899 256.800 C 99.793 256.800,99.263 257.475,98.721 258.300 M153.525 259.300 C 150.995 263.128,150.706 263.600,150.897 263.600 C 151.064 263.600,152.159 262.023,154.577 258.300 C 154.970 257.695,155.207 257.200,155.103 257.200 C 154.998 257.200,154.289 258.145,153.525 259.300 M283.800 259.200 C 284.659 260.080,285.452 260.800,285.562 260.800 C 285.672 260.800,285.059 260.080,284.200 259.200 C 283.341 258.320,282.548 257.600,282.438 257.600 C 282.328 257.600,282.941 258.320,283.800 259.200 M396.600 259.468 C 395.720 260.257,395.360 260.716,395.800 260.488 C 396.541 260.104,398.751 257.979,398.370 258.017 C 398.276 258.026,397.480 258.679,396.600 259.468 M129.640 260.633 C 129.662 261.715,129.822 263.050,129.997 263.600 C 130.181 264.181,130.225 263.427,130.101 261.800 C 129.851 258.504,129.583 257.827,129.640 260.633 M286.215 261.224 C 286.447 261.599,289.185 262.548,289.405 262.329 C 289.488 262.246,288.760 261.892,287.787 261.542 C 286.814 261.192,286.107 261.049,286.215 261.224 M168.553 261.700 C 167.176 264.036,167.086 264.235,167.787 263.400 C 168.600 262.432,169.300 261.200,169.038 261.200 C 168.933 261.200,168.715 261.425,168.553 261.700 M192.646 262.600 C 192.291 263.150,191.709 264.095,191.353 264.700 L 190.705 265.800 191.510 264.826 C 192.460 263.676,193.721 261.600,193.469 261.600 C 193.371 261.600,193.001 262.050,192.646 262.600 M315.900 262.700 C 329.375 262.758,351.425 262.758,364.900 262.700 C 378.375 262.642,367.350 262.594,340.400 262.594 C 313.450 262.594,302.425 262.642,315.900 262.700 M94.802 264.288 C 94.331 264.887,93.193 265.876,92.273 266.487 C 91.353 267.097,90.739 267.597,90.909 267.598 C 91.564 267.602,94.302 265.529,95.142 264.393 C 96.245 262.900,95.963 262.813,94.802 264.288 M2.206 265.161 C 3.593 266.838,6.427 268.405,7.978 268.350 L 9.400 268.300 7.752 268.030 C 6.005 267.744,4.556 266.961,2.606 265.248 C 1.508 264.284,1.476 264.277,2.206 265.161 M132.000 267.733 C 132.000 267.843,132.720 268.503,133.600 269.200 C 134.480 269.897,135.200 270.377,135.200 270.267 C 135.200 270.157,134.480 269.497,133.600 268.800 C 132.720 268.103,132.000 267.623,132.000 267.733 M87.700 268.276 C 88.085 268.376,88.715 268.376,89.100 268.276 C 89.485 268.175,89.170 268.093,88.400 268.093 C 87.630 268.093,87.315 268.175,87.700 268.276 M146.481 268.972 C 144.623 270.285,144.362 270.661,145.931 269.762 C 146.663 269.343,147.450 268.775,147.680 268.500 C 148.271 267.793,147.993 267.902,146.481 268.972 M28.930 268.700 C 39.672 268.759,57.132 268.759,67.730 268.700 C 78.329 268.641,69.540 268.592,48.200 268.592 C 26.860 268.592,18.189 268.641,28.930 268.700 M162.537 271.100 C 161.886 272.145,161.028 273.495,160.631 274.100 C 160.233 274.705,159.993 275.200,160.097 275.200 C 160.305 275.200,162.784 271.538,163.549 270.100 C 164.396 268.509,163.757 269.140,162.537 271.100 M138.700 271.489 C 139.415 271.578,140.585 271.578,141.300 271.489 C 142.015 271.401,141.430 271.328,140.000 271.328 C 138.570 271.328,137.985 271.401,138.700 271.489 M185.753 273.300 C 184.376 275.636,184.286 275.835,184.987 275.000 C 185.800 274.032,186.500 272.800,186.238 272.800 C 186.133 272.800,185.915 273.025,185.753 273.300 M155.753 281.700 C 154.376 284.036,154.286 284.235,154.987 283.400 C 155.800 282.432,156.500 281.200,156.238 281.200 C 156.133 281.200,155.915 281.425,155.753 281.700 M179.846 282.600 C 179.491 283.150,178.909 284.095,178.553 284.700 L 177.905 285.800 178.710 284.826 C 179.660 283.676,180.921 281.600,180.669 281.600 C 180.571 281.600,180.201 282.050,179.846 282.600 M149.737 291.100 C 149.086 292.145,148.228 293.495,147.831 294.100 C 147.433 294.705,147.193 295.200,147.297 295.200 C 147.505 295.200,149.984 291.538,150.749 290.100 C 151.596 288.509,150.957 289.140,149.737 291.100 M172.953 293.300 C 171.576 295.636,171.486 295.835,172.187 295.000 C 173.000 294.032,173.700 292.800,173.438 292.800 C 173.333 292.800,173.115 293.025,172.953 293.300 M143.446 301.000 C 143.091 301.550,142.509 302.495,142.153 303.100 L 141.505 304.200 142.310 303.226 C 143.260 302.076,144.521 300.000,144.269 300.000 C 144.171 300.000,143.801 300.450,143.446 301.000 M167.046 302.600 C 166.691 303.150,166.109 304.095,165.753 304.700 L 165.105 305.800 165.910 304.826 C 166.860 303.676,168.121 301.600,167.869 301.600 C 167.771 301.600,167.401 302.050,167.046 302.600 M137.800 310.800 C 137.648 311.491,137.607 312.141,137.709 312.242 C 137.811 312.344,138.009 311.853,138.150 311.150 C 138.483 309.483,138.160 309.160,137.800 310.800 M140.600 390.400 C 141.459 391.280,142.252 392.000,142.362 392.000 C 142.472 392.000,141.859 391.280,141.000 390.400 C 140.141 389.520,139.348 388.800,139.238 388.800 C 139.128 388.800,139.741 389.520,140.600 390.400 M145.000 393.190 C 145.764 393.528,148.314 393.757,147.967 393.456 C 147.875 393.376,146.990 393.204,146.000 393.073 C 144.798 392.914,144.466 392.953,145.000 393.190" stroke="none" fill="#bcd4e4" fill-rule="evenodd"/>
</g>
</svg>