<svg xmlns="http://www.w3.org/2000/svg" version="1.1" width="1792" height="1024">
<path d="M0 0 C1.18779053 0.00757324 2.37558105 0.01514648 3.59936523 0.02294922 C13.22243928 0.2021596 21.73762832 1.53814168 30.875 4.4375 C32.27054653 4.8434352 33.66638782 5.24835825 35.0625 5.65234375 C60.98981504 13.45945348 85.80589565 26.87144737 107.875 42.4375 C108.57834473 42.92976074 109.28168945 43.42202148 110.00634766 43.92919922 C124.08996769 53.81638729 137.64731922 64.29133664 150.25 76.0234375 C151.65046064 77.31136112 153.05761641 78.59315732 154.50561523 79.82739258 C160.71347547 85.12044446 166.44833195 90.85927326 172.20239258 96.63452148 C173.933947 98.371436 175.67078359 100.10293889 177.40820312 101.83398438 C182.63065105 107.05367407 187.79028866 112.27105552 192.56054688 117.91479492 C193.73895123 119.2798967 195.02087378 120.5539924 196.3125 121.8125 C197.875 123.4375 197.875 123.4375 197.875 125.4375 C202.65530969 121.46425558 206.9287448 117.36976365 210.94140625 112.625 C214.03540253 109.12472139 217.39549917 105.89759499 220.73828125 102.63671875 C223.0102713 100.43171935 223.0102713 100.43171935 224.875 97.4375 C225.535 97.4375 226.195 97.4375 226.875 97.4375 C227.12765625 96.88964844 227.3803125 96.34179688 227.640625 95.77734375 C229.35278505 92.53182517 231.91992314 90.40587957 234.625 88 C235.80910107 86.93024879 236.99267725 85.85991633 238.17578125 84.7890625 C238.78760254 84.23766602 239.39942383 83.68626953 240.02978516 83.11816406 C241.82583158 81.48228373 243.59461249 79.82207332 245.35546875 78.1484375 C258.00113608 66.14543645 271.73739663 55.93159755 285.92626953 45.828125 C287.52815008 44.68501405 289.12255544 43.53143498 290.71484375 42.375 C323.87942814 18.53623052 369.80252157 -5.86430606 411.85400391 0.91796875 C431.24984852 5.22891917 446.797741 15.23568243 457.83203125 31.89453125 C465.4025396 44.47197086 468.25499977 57.541371 468.1875 72.0625 C468.17904053 73.94328247 468.17904053 73.94328247 468.17041016 75.86206055 C467.74147585 108.48867231 449.72991352 135.6474505 428.875 159.4375 C428.15957031 160.26507813 427.44414063 161.09265625 426.70703125 161.9453125 C415.79383222 174.35318982 404.17361616 185.63290867 390.875 195.4375 C390.21193848 195.93427246 389.54887695 196.43104492 388.86572266 196.94287109 C369.78986326 211.21977215 349.45446526 223.47241482 328.875 235.4375 C329.40641602 235.73817383 329.93783203 236.03884766 330.48535156 236.34863281 C384.85368433 267.15347403 446.28987193 306.48709869 464.875 370.4375 C470.9832107 394.51103627 471.02583682 421.33995921 458.125 443.3125 C447.02669926 460.10543445 432.03961104 470.71471459 412.34790039 474.9855957 C383.87046021 480.43849716 357.5717286 472.51543457 331.875 460.4375 C330.93479004 459.99696289 329.99458008 459.55642578 329.02587891 459.10253906 C307.64554596 448.90308697 287.13794241 435.53211813 268.875 420.4375 C268.34310059 419.99889648 267.81120117 419.56029297 267.26318359 419.10839844 C257.45596467 410.99383916 247.94580016 402.6134698 239.01171875 393.5390625 C237.09260574 391.65152539 235.12521456 389.914226 233.0625 388.1875 C228.79463623 384.53298192 225.08250562 380.42736162 221.30859375 376.27758789 C217.87134142 372.49955468 214.33372244 368.86301202 210.6875 365.28515625 C208.12585166 362.67382077 205.76777718 359.90347184 203.41796875 357.1015625 C201.78111667 355.20665089 201.78111667 355.20665089 198.875 353.4375 C198.215 353.4375 197.555 353.4375 196.875 353.4375 C196.20128188 354.76728424 195.53605466 356.10137539 194.875 357.4375 C193.69236003 358.73160718 192.45793368 359.97946483 191.1875 361.1875 C188.65166909 363.60644892 186.30295163 366.09192575 184.0390625 368.76171875 C178.66055898 374.96020828 172.77793799 380.68321127 166.96899414 386.47387695 C164.9423702 388.49514268 162.92114453 390.52169574 160.90039062 392.54882812 C154.73135598 398.72128357 148.58337792 404.84459815 141.875 410.4375 C140.95976563 411.23414063 140.04453125 412.03078125 139.1015625 412.8515625 C126.20088627 423.81520026 112.31420082 433.6072988 97.875 442.4375 C97.21677246 442.8406543 96.55854492 443.24380859 95.88037109 443.65917969 C62.51564734 463.96678465 22.22326163 483.79628863 -17.68603516 474.27612305 C-28.79939518 471.36794257 -38.40858833 467.02804183 -47.125 459.4375 C-48.115 458.715625 -49.105 457.99375 -50.125 457.25 C-63.75653636 445.70686058 -70.24279146 427.70314376 -72.125 410.4375 C-73.33769762 386.50581951 -69.22035366 366.49029976 -58.08154297 345.26953125 C-57.25631647 343.68900556 -56.45583658 342.09560429 -55.66015625 340.5 C-44.90856485 319.5577698 -27.20663037 300.26831251 -8.94921875 285.703125 C-6.10273899 283.41964193 -3.33575455 281.05911079 -0.5625 278.6875 C11.7809855 268.40659174 24.92535599 259.3815752 38.875 251.4375 C39.73158203 250.94830078 40.58816406 250.45910156 41.47070312 249.95507812 C49.34035255 245.46206375 49.34035255 245.46206375 52.64379883 243.59741211 C57.17658295 241.02999306 61.58924661 238.40022935 65.875 235.4375 C65.29234375 235.09605957 64.7096875 234.75461914 64.109375 234.40283203 C24.76152203 211.31844895 -16.33956754 186.4042555 -43.125 148.4375 C-43.79523193 147.50188232 -43.79523193 147.50188232 -44.47900391 146.54736328 C-64.05998843 119.14479197 -75.23405937 91.93737239 -71.734375 57.60546875 C-69.29801015 45.18937864 -62.59373154 32.7680936 -54.125 23.4375 C-53.52171875 22.75429688 -52.9184375 22.07109375 -52.296875 21.3671875 C-38.680733 6.8100926 -19.60322961 -0.17624024 0 0 Z " fill="#FD7302" transform="translate(703.125,281.5625)"/>
<path d="M0 0 C2.45075091 1.49893022 4.59508783 3.14982231 6.74804688 5.04882812 C8.66407001 6.7022604 10.65039538 8.23267417 12.6640625 9.765625 C16.56299576 12.73778307 20.42099044 15.7576551 24.26855469 18.79589844 C27.30917446 21.19349514 30.36476033 23.5710868 33.4296875 25.9375 C34.44289063 26.72125 35.45609375 27.505 36.5 28.3125 C40.16185018 31.04668147 43.94465193 33.5698911 47.796875 36.02734375 C48.33570313 36.51332031 48.87453125 36.99929688 49.4296875 37.5 C48.35343905 40.72874535 47.90757699 41.16265782 45.2890625 43.06640625 C44.63736084 43.54658203 43.98565918 44.02675781 43.31420898 44.52148438 C42.60981689 45.03001953 41.9054248 45.53855469 41.1796875 46.0625 C39.70656053 47.146496 38.23391019 48.23114003 36.76171875 49.31640625 C36.02646973 49.85539551 35.2912207 50.39438477 34.53369141 50.94970703 C27.45398102 56.16624926 20.53659806 61.59329682 13.69287109 67.11425781 C7.42901416 72.16610939 1.12384777 77.02287673 -5.5703125 81.5 C-6.45460938 82.098125 -7.33890625 82.69625 -8.25 83.3125 C-18.6851396 90.32581876 -29.25154464 97.147716 -39.8828125 103.859375 C-93.17187695 136.95966566 -93.17187695 136.95966566 -126.5703125 188.5 C-127.0034375 189.655 -127.4365625 190.81 -127.8828125 192 C-129.01700867 197.77408958 -130.37227025 204.70465529 -127.046875 209.86328125 C-123.04308328 212.50932025 -119.11047748 211.95592705 -114.58984375 211.14453125 C-112.55486077 210.6692957 -110.56927001 210.10904629 -108.5703125 209.5 C-107.84118652 209.28142334 -107.11206055 209.06284668 -106.36083984 208.83764648 C-98.93283844 206.48989889 -92.13486441 203.12765478 -85.29980469 199.42724609 C-83.82487041 198.63647811 -82.32839088 197.88611566 -80.828125 197.14453125 C-65.95676731 189.61619597 -52.36672182 178.93306641 -40.02539062 167.80810547 C-38.71466026 166.62976766 -37.38572141 165.47176022 -36.0546875 164.31640625 C-30.62723034 159.56288831 -25.49480145 154.52492895 -20.3828125 149.4375 C-19.71717285 148.7765332 -19.0515332 148.11556641 -18.36572266 147.43457031 C-14.46840273 143.52465025 -10.75532246 139.50992265 -7.16870117 135.31274414 C-5.53732576 133.46258949 -3.83130247 131.7265268 -2.0703125 130 C0.22294786 127.74202057 2.39396778 125.44003496 4.4921875 123 C12.14232245 114.13830522 20.21649252 105.59294995 28.56860352 97.3918457 C30.36101186 95.56981078 32.03955761 93.69418571 33.70703125 91.7578125 C39.1218842 85.53126844 44.78691376 79.54501993 50.47216797 73.56591797 C51.76087011 72.20585342 53.04392127 70.8404084 54.32080078 69.46923828 C56.07189238 67.59023437 57.84153004 65.73076423 59.6171875 63.875 C60.14521973 63.30048096 60.67325195 62.72596191 61.21728516 62.1340332 C62.72265625 60.5859375 62.72265625 60.5859375 65.4296875 58.5 C69.12337201 59.66135416 71.50345829 62.31557892 74.1953125 65 C75.52949219 66.3303125 75.52949219 66.3303125 76.890625 67.6875 C77.81101562 68.615625 78.73140625 69.54375 79.6796875 70.5 C80.61554688 71.428125 81.55140625 72.35625 82.515625 73.3125 C83.39992188 74.199375 84.28421875 75.08625 85.1953125 76 C86.00774414 76.8146875 86.82017578 77.629375 87.65722656 78.46875 C89.4296875 80.5 89.4296875 80.5 89.4296875 82.5 C90.4196875 82.83 91.4096875 83.16 92.4296875 83.5 C93.76171875 84.8203125 93.76171875 84.8203125 95.2421875 86.625 C98.84242262 90.87772976 102.61411195 94.94176065 106.4296875 99 C110.58486569 103.43020884 114.69768653 107.87597862 118.66015625 112.48046875 C121.03853132 115.19486149 123.48475932 117.84574017 125.9296875 120.5 C128.94899519 123.7785105 131.95171 127.06581086 134.8671875 130.4375 C141.62440409 138.22051091 148.62446078 145.81901497 155.9921875 153.02734375 C157.37007386 154.43892842 158.62328187 155.96903923 159.8671875 157.5 C162.44534628 160.51833223 165.14133799 162.97560162 168.16015625 165.53515625 C169.73789184 166.9010788 171.28030696 168.30843998 172.79296875 169.74609375 C192.89072003 188.80693525 224.34449226 210.66107729 253.1171875 211.9375 C256.62971507 211.47358126 258.1610659 211.22234592 260.4296875 208.5 C263.47320215 196.07529901 256.73433431 182.09701365 250.71875 171.48046875 C237.83373028 151.17433008 220.03269632 135.98407854 200.4296875 122.5 C199.71184082 122.00532227 198.99399414 121.51064453 198.25439453 121.00097656 C189.13442203 114.75121742 179.81820171 108.83660269 170.4296875 103 C148.19435897 89.17344543 127.40430685 74.01914051 106.9375 57.71875 C105.76874215 56.79102004 104.59947313 55.86393368 103.4296875 54.9375 C102.86217773 54.48761719 102.29466797 54.03773438 101.70996094 53.57421875 C96.83918344 49.74816376 91.8149307 46.15708521 86.6953125 42.67163086 C85.23926601 41.66200185 83.82909572 40.58677447 82.4296875 39.5 C82.4296875 38.84 82.4296875 38.18 82.4296875 37.5 C83.90625 36.37890625 83.90625 36.37890625 86.0546875 35.0625 C95.05884586 29.24702175 103.27788061 22.27741632 111.56030273 15.49169922 C113.58550845 13.83836214 115.62173914 12.19950497 117.66015625 10.5625 C120.02950452 8.65795211 122.33680942 6.71052678 124.60546875 4.6875 C127.17740161 2.52465743 129.30728995 0.74384034 132.4296875 -0.5 C135.01995905 0.28277437 136.32057606 1.38192736 138.1875 3.3203125 C141.56002544 6.59883026 145.49382366 8.94736978 149.4296875 11.5 C150.92433904 12.50087113 152.41783696 13.50346725 153.91015625 14.5078125 C173.24975169 27.77800647 173.24975169 27.77800647 194.4296875 37.5 C194.4296875 38.16 194.4296875 38.82 194.4296875 39.5 C196.09334396 39.84804607 197.76079493 40.17799615 199.4296875 40.5 C201.22518739 41.3470857 202.98720496 42.26713459 204.71875 43.23828125 C206.24036743 44.08821655 206.24036743 44.08821655 207.79272461 44.95532227 C208.86917236 45.56819092 209.94562012 46.18105957 211.0546875 46.8125 C212.17045166 47.44406006 213.28621582 48.07562012 214.43579102 48.72631836 C235.6995301 60.85159469 256.12833452 74.17763947 274.4296875 90.5 C275.23116211 91.20890381 275.23116211 91.20890381 276.04882812 91.93212891 C306.08893046 118.61365515 333.7663338 155.01015724 336.4296875 196.5 C337.06527608 220.6353415 331.75520498 242.31716246 314.77734375 260.28515625 C298.29037454 275.83941838 276.74734161 280.41273467 254.73046875 279.9296875 C235.25158156 278.95498638 216.89077241 271.70703072 199.4296875 263.5 C198.48947754 263.05946289 197.54926758 262.61892578 196.58056641 262.16503906 C175.20023346 251.96558697 154.69262991 238.59461813 136.4296875 223.5 C135.89778809 223.06139648 135.36588867 222.62279297 134.81787109 222.17089844 C125.01065217 214.05633916 115.50048766 205.6759698 106.56640625 196.6015625 C104.64729324 194.71402539 102.67990206 192.976726 100.6171875 191.25 C96.34932373 187.59548192 92.63719312 183.48986162 88.86328125 179.34008789 C85.42602892 175.56205468 81.88840994 171.92551202 78.2421875 168.34765625 C75.68053916 165.73632077 73.32246468 162.96597184 70.97265625 160.1640625 C69.33580417 158.26915089 69.33580417 158.26915089 66.4296875 156.5 C65.7696875 156.5 65.1096875 156.5 64.4296875 156.5 C63.75596938 157.82978424 63.09074216 159.16387539 62.4296875 160.5 C61.24704753 161.79410718 60.01262118 163.04196483 58.7421875 164.25 C56.20635659 166.66894892 53.85763913 169.15442575 51.59375 171.82421875 C46.21524648 178.02270828 40.33262549 183.74571127 34.52368164 189.53637695 C32.4970577 191.55764268 30.47583203 193.58419574 28.45507812 195.61132812 C22.28604348 201.78378357 16.13806542 207.90709815 9.4296875 213.5 C8.05683594 214.69496094 8.05683594 214.69496094 6.65625 215.9140625 C-6.24442623 226.87770026 -20.13111168 236.6697988 -34.5703125 245.5 C-35.22854004 245.9031543 -35.88676758 246.30630859 -36.56494141 246.72167969 C-69.92966516 267.02928465 -110.22205087 286.85878863 -150.13134766 277.33862305 C-161.24470768 274.43044257 -170.85390083 270.09054183 -179.5703125 262.5 C-180.5603125 261.778125 -181.5503125 261.05625 -182.5703125 260.3125 C-196.20184886 248.76936058 -202.68810396 230.76564376 -204.5703125 213.5 C-205.78301012 189.56831951 -201.66566616 169.55279976 -190.52685547 148.33203125 C-189.70162897 146.75150556 -188.90114908 145.15810429 -188.10546875 143.5625 C-177.35387735 122.6202698 -159.65194287 103.33081251 -141.39453125 88.765625 C-138.54805149 86.48214193 -135.78106705 84.12161079 -133.0078125 81.75 C-121.29799103 71.9968715 -108.85927945 63.24721648 -95.6328125 55.68066406 C-93.37645235 54.38902608 -91.12973666 53.08141641 -88.8828125 51.7734375 C-79.20658376 46.168448 -69.42946601 40.77614797 -59.5703125 35.5 C-34.25232628 22.65717701 -34.25232628 22.65717701 -11.63671875 5.765625 C-4.33916895 -0.84409366 -4.33916895 -0.84409366 0 0 Z " fill="#03364E" transform="translate(835.5703125,478.5)"/>
<path d="M0 0 C22.76873721 5.38433552 42.79303195 18.78723926 60.74609375 33.37109375 C61.68710937 34.13164062 62.628125 34.8921875 63.59765625 35.67578125 C65.37305204 37.12110345 67.14317351 38.57294392 68.90641785 40.0330658 C70.70186769 41.51133728 72.50669004 42.97836162 74.32417297 44.42945862 C80.85627693 49.66447168 86.88684206 55.21777246 92.7890625 61.1484375 C94.13077263 62.48727745 94.13077263 62.48727745 95.49958801 63.85316467 C97.83933166 66.1912177 100.17419537 68.53401251 102.50744629 70.87854004 C104.42629654 72.80264607 106.35258695 74.71922052 108.27881908 76.63593197 C110.57874428 78.92693129 112.87108058 81.22549205 115.1640625 83.5234375 C116.02637985 84.38170639 116.8886972 85.23997528 117.77714539 86.12425232 C118.56249161 86.91590286 119.34783783 87.70755341 120.15698242 88.52319336 C120.85216476 89.21996689 121.54734711 89.91674042 122.26359558 90.6346283 C123.74609375 92.37109375 123.74609375 92.37109375 123.74609375 94.37109375 C124.70515625 94.83515625 124.70515625 94.83515625 125.68359375 95.30859375 C127.74609375 96.37109375 127.74609375 96.37109375 128.74609375 99.37109375 C129.73609375 99.70109375 130.72609375 100.03109375 131.74609375 100.37109375 C133.21875 101.8671875 133.21875 101.8671875 134.80859375 103.80859375 C138.36144246 108.00741495 142.18190331 111.84806621 146.12109375 115.68359375 C148.11267234 117.72259088 149.97395356 119.76821009 151.828125 121.92578125 C156.32326243 127.10377059 161.07219845 132.02671917 165.88110352 136.91113281 C166.92769455 137.97961354 167.96795643 139.05432602 169.00219727 140.13476562 C170.51081657 141.70979916 172.03778288 143.26467318 173.5703125 144.81640625 C174.9174231 146.20110107 174.9174231 146.20110107 176.29174805 147.61376953 C177.10168213 148.19368652 177.91161621 148.77360352 178.74609375 149.37109375 C181.76845633 148.28473988 183.78188333 146.58416447 186.02661133 144.33349609 C186.64437943 143.71880463 187.26214752 143.10411316 187.89863586 142.47079468 C188.55599228 141.80625275 189.21334869 141.14171082 189.890625 140.45703125 C190.57863693 139.7685611 191.26664886 139.08009094 191.97550964 138.37075806 C193.43111443 136.91213392 194.88428972 135.45108184 196.33520508 133.98779297 C198.53487679 131.77000603 200.74230262 129.56018498 202.95117188 127.3515625 C204.36895947 125.92885353 205.78629156 124.50569044 207.203125 123.08203125 C207.85440872 122.4296347 208.50569244 121.77723816 209.17671204 121.10507202 C212.97750992 117.26561409 216.60336288 113.32373979 220.11686707 109.2192688 C223.58363718 105.2866067 227.39719182 101.68187399 231.140625 98.015625 C234.20628752 94.98804525 237.16758092 91.93220358 239.96777344 88.65600586 C243.78229447 84.27287742 247.81363123 80.14195928 251.91796875 76.03125 C252.68103333 75.26485703 253.4440979 74.49846405 254.23028564 73.70884705 C255.83580838 72.09829309 257.44266015 70.48906303 259.05078125 68.88110352 C261.48076452 66.44893676 263.90263079 64.00888136 266.32421875 61.56835938 C274.15635701 53.70775323 281.94777923 46.15205175 290.74609375 39.37109375 C291.99099434 38.34861914 293.23228585 37.32172325 294.46875 36.2890625 C311.85784214 21.99238681 330.95827167 9.11853019 352.37109375 1.74609375 C353.08072266 1.49811035 353.79035156 1.25012695 354.52148438 0.99462891 C359.55032812 -0.61029606 364.47493069 -1.29007705 369.74609375 -0.62890625 C372.87109375 1.05859375 372.87109375 1.05859375 374.74609375 4.37109375 C376.22198872 18.52351131 368.54030522 31.86770637 360.13427734 42.66308594 C341.48996018 65.6028754 317.68100456 81.09487875 292.79052734 96.48193359 C284.38969578 101.69489547 276.05649658 107.01539474 267.74609375 112.37109375 C266.94445801 112.88768555 266.14282227 113.40427734 265.31689453 113.93652344 C254.04152154 121.2377319 243.3100618 129.07866604 232.74609375 137.37109375 C231.53017085 138.31929637 230.31403355 139.26722412 229.09765625 140.21484375 C224.28925613 143.9703193 219.50539592 147.75476008 214.75390625 151.58203125 C214.08504395 152.12013428 213.41618164 152.6582373 212.72705078 153.21264648 C211.44741592 154.24357735 210.16961142 155.27678616 208.89404297 156.31274414 C198.89921208 164.37109375 198.89921208 164.37109375 195.74609375 164.37109375 C195.74609375 165.03109375 195.74609375 165.69109375 195.74609375 166.37109375 C197.05949613 167.0762153 198.39846263 167.73382412 199.74609375 168.37109375 C209.00402638 174.63196684 217.69057417 181.75288548 226.42871094 188.7109375 C243.55290723 202.34556042 261.14283841 214.82615956 279.74609375 226.37109375 C282.94719104 228.36205034 286.14767447 230.35397556 289.34692383 232.34790039 C291.37976975 233.61356328 293.41462425 234.87600844 295.4519043 236.13452148 C301.70091242 240.01430869 307.76427849 244.09155753 313.74609375 248.37109375 C315.2465625 249.43650391 315.2465625 249.43650391 316.77734375 250.5234375 C342.49009777 269.11636248 368.83522465 292.31476923 375.24609375 324.93359375 C375.81462801 329.249813 375.94995015 332.4642574 373.74609375 336.37109375 C372.12109375 338.24609375 372.12109375 338.24609375 369.74609375 339.37109375 C364.09601993 339.67291393 359.29171777 339.04276599 353.87109375 337.37109375 C353.14422363 337.1503418 352.41735352 336.92958984 351.66845703 336.70214844 C325.81143134 328.52395799 303.7871932 313.28953027 283.74609375 295.37109375 C282.87259277 294.59233887 282.87259277 294.59233887 281.98144531 293.79785156 C276.14243427 288.56835416 270.45677571 283.32099323 265.41796875 277.296875 C263.46091507 275.04260522 261.37284363 272.96572828 259.24609375 270.87109375 C255.92182832 267.58593732 252.79969545 264.21328687 249.7578125 260.66796875 C247.14329399 257.68284859 244.44573848 254.77913647 241.74609375 251.87109375 C237.95703413 247.78561504 234.22436672 243.66715132 230.578125 239.453125 C228.21359297 236.76592761 225.79387312 234.13062851 223.37109375 231.49609375 C219.83820567 227.65272872 216.31077593 223.80503402 212.80859375 219.93359375 C212.11894531 219.17175781 211.42929687 218.40992188 210.71875 217.625 C209.37152476 216.08569512 208.06794132 214.50737043 206.8046875 212.8984375 C204.59881907 210.19028404 202.23429699 207.82516526 199.74609375 205.37109375 C198.24258207 203.80159288 196.74153842 202.22972614 195.2421875 200.65625 C193.55637477 198.91499158 191.87016638 197.17411615 190.18359375 195.43359375 C189.33345703 194.53318359 188.48332031 193.63277344 187.60742188 192.70507812 C186.78564453 191.86396484 185.96386719 191.02285156 185.1171875 190.15625 C184.3739624 189.381604 183.6307373 188.60695801 182.86499023 187.80883789 C182.16575439 187.33438232 181.46651855 186.85992676 180.74609375 186.37109375 C177.21589398 187.2676183 174.96170255 189.91086203 172.4453125 192.44140625 C171.63255859 193.25609375 170.81980469 194.07078125 169.98242188 194.91015625 C169.14130859 195.76351562 168.30019531 196.616875 167.43359375 197.49609375 C166.60408203 198.32625 165.77457031 199.15640625 164.91992188 200.01171875 C160.59888526 204.36344939 156.42833397 208.7890368 152.4284668 213.43701172 C149.47693056 216.83014335 146.38985043 220.09606732 143.30859375 223.37109375 C142.32246094 224.42200195 142.32246094 224.42200195 141.31640625 225.49414062 C137.42018733 229.63339102 133.45990446 233.69025469 129.41015625 237.6796875 C127.12499421 240.00239915 125.02421771 242.46556775 122.8984375 244.93359375 C118.25448836 250.19280294 113.40404875 255.2665107 108.60449219 260.38330078 C106.8138796 262.29858819 105.03227719 264.2217852 103.25390625 266.1484375 C91.72176271 278.62661549 80.1680319 290.90156321 66.74609375 301.37109375 C65.67681641 302.27601563 65.67681641 302.27601563 64.5859375 303.19921875 C51.05570866 314.55792938 35.84428838 324.13042106 19.74609375 331.37109375 C18.6684375 331.8609375 17.59078125 332.35078125 16.48046875 332.85546875 C7.83830757 336.62256465 -1.6823293 340.69131126 -11.25390625 339.37109375 C-14.25390625 337.62109375 -14.25390625 337.62109375 -16.25390625 334.37109375 C-18.99313261 320.13609777 -11.03632274 305.17208449 -3.48046875 293.671875 C16.09092449 265.67280018 44.98306221 247.79032587 73.3046875 229.828125 C80.81848118 225.06003464 88.29344935 220.23408758 95.74609375 215.37109375 C96.7218335 214.7376001 96.7218335 214.7376001 97.71728516 214.09130859 C110.04245932 206.07671245 121.48705421 197.19998539 132.93164062 187.98852539 C141.29958694 181.28274967 149.85132547 174.77643775 158.65234375 168.6484375 C161.75989211 166.7228297 161.75989211 166.7228297 162.74609375 164.37109375 C162.18148437 164.108125 161.616875 163.84515625 161.03515625 163.57421875 C153.15166583 159.43067771 146.1759674 153.16316898 139.18359375 147.68359375 C130.21325632 140.66172738 121.04323953 133.95244695 111.74609375 127.37109375 C111.16021484 126.95520996 110.57433594 126.53932617 109.97070312 126.11083984 C97.15832584 117.04110539 83.93398014 108.66309441 70.49609375 100.55859375 C-4.08139089 55.44366646 -4.08139089 55.44366646 -15.58984375 17.265625 C-16.59702343 12.87550651 -17.17278276 8.81910657 -16.25390625 4.37109375 C-11.9934924 -2.28580289 -6.89291218 -1.33224353 0 0 Z " fill="#FCFCFB" transform="translate(722.25390625,351.62890625)"/>
<path d="M0 0 C2.45075091 1.49893022 4.59508783 3.14982231 6.74804688 5.04882812 C8.66407001 6.7022604 10.65039538 8.23267417 12.6640625 9.765625 C16.56299576 12.73778307 20.42099044 15.7576551 24.26855469 18.79589844 C27.30917446 21.19349514 30.36476033 23.5710868 33.4296875 25.9375 C34.44289063 26.72125 35.45609375 27.505 36.5 28.3125 C40.16185018 31.04668147 43.94465193 33.5698911 47.796875 36.02734375 C48.33570313 36.51332031 48.87453125 36.99929688 49.4296875 37.5 C48.35343905 40.72874535 47.90757699 41.16265782 45.2890625 43.06640625 C44.63736084 43.54658203 43.98565918 44.02675781 43.31420898 44.52148438 C42.60981689 45.03001953 41.9054248 45.53855469 41.1796875 46.0625 C39.70656053 47.146496 38.23391019 48.23114003 36.76171875 49.31640625 C36.02646973 49.85539551 35.2912207 50.39438477 34.53369141 50.94970703 C27.45398102 56.16624926 20.53659806 61.59329682 13.69287109 67.11425781 C7.42901416 72.16610939 1.12384777 77.02287673 -5.5703125 81.5 C-6.45460938 82.098125 -7.33890625 82.69625 -8.25 83.3125 C-18.6851396 90.32581876 -29.25154464 97.147716 -39.8828125 103.859375 C-93.17187695 136.95966566 -93.17187695 136.95966566 -126.5703125 188.5 C-127.0034375 189.655 -127.4365625 190.81 -127.8828125 192 C-129.01700867 197.77408958 -130.37227025 204.70465529 -127.046875 209.86328125 C-123.04308328 212.50932025 -119.11047748 211.95592705 -114.58984375 211.14453125 C-112.55486077 210.6692957 -110.56927001 210.10904629 -108.5703125 209.5 C-107.84118652 209.28142334 -107.11206055 209.06284668 -106.36083984 208.83764648 C-98.93283844 206.48989889 -92.13486441 203.12765478 -85.29980469 199.42724609 C-83.82487041 198.63647811 -82.32839088 197.88611566 -80.828125 197.14453125 C-65.95676731 189.61619597 -52.36672182 178.93306641 -40.02539062 167.80810547 C-38.71466026 166.62976766 -37.38572141 165.47176022 -36.0546875 164.31640625 C-30.62723034 159.56288831 -25.49480145 154.52492895 -20.3828125 149.4375 C-19.71717285 148.7765332 -19.0515332 148.11556641 -18.36572266 147.43457031 C-14.46840273 143.52465025 -10.75532246 139.50992265 -7.16870117 135.31274414 C-5.53732963 133.46259389 -3.83130304 131.72651722 -2.0703125 130 C0.2641309 127.70162967 2.4754135 125.35385707 4.6171875 122.875 C5.184375 122.2253125 5.7515625 121.575625 6.3359375 120.90625 C7.51035594 119.55654523 8.6820491 118.20441625 9.84375 116.84375 C11.41943662 115.00676862 13.01661974 113.19031646 14.6171875 111.375 C15.38421997 110.46693604 15.38421997 110.46693604 16.16674805 109.54052734 C17.66015625 107.8671875 17.66015625 107.8671875 20.4296875 105.5 C24.49103698 106.01572692 27.95379732 110.77192239 30.7421875 113.625 C31.32323242 114.21321533 31.90427734 114.80143066 32.50292969 115.4074707 C36.04866958 119.02025189 39.48771671 122.69547527 42.765625 126.5546875 C44.73107764 128.85232932 46.76698621 131.07873123 48.8046875 133.3125 C53.53807372 138.55563551 58.00655269 143.99433889 62.4296875 149.5 C63.17605469 150.39074219 63.92242188 151.28148437 64.69140625 152.19921875 C66.4296875 154.5 66.4296875 154.5 66.4296875 156.5 C65.7696875 156.5 65.1096875 156.5 64.4296875 156.5 C63.75596938 157.82978424 63.09074216 159.16387539 62.4296875 160.5 C61.24704753 161.79410718 60.01262118 163.04196483 58.7421875 164.25 C56.20635659 166.66894892 53.85763913 169.15442575 51.59375 171.82421875 C46.21524648 178.02270828 40.33262549 183.74571127 34.52368164 189.53637695 C32.4970577 191.55764268 30.47583203 193.58419574 28.45507812 195.61132812 C22.28604348 201.78378357 16.13806542 207.90709815 9.4296875 213.5 C8.05683594 214.69496094 8.05683594 214.69496094 6.65625 215.9140625 C-6.24442623 226.87770026 -20.13111168 236.6697988 -34.5703125 245.5 C-35.22854004 245.9031543 -35.88676758 246.30630859 -36.56494141 246.72167969 C-69.92966516 267.02928465 -110.22205087 286.85878863 -150.13134766 277.33862305 C-161.24470768 274.43044257 -170.85390083 270.09054183 -179.5703125 262.5 C-180.5603125 261.778125 -181.5503125 261.05625 -182.5703125 260.3125 C-196.20184886 248.76936058 -202.68810396 230.76564376 -204.5703125 213.5 C-205.78301012 189.56831951 -201.66566616 169.55279976 -190.52685547 148.33203125 C-189.70162897 146.75150556 -188.90114908 145.15810429 -188.10546875 143.5625 C-177.35387735 122.6202698 -159.65194287 103.33081251 -141.39453125 88.765625 C-138.54805149 86.48214193 -135.78106705 84.12161079 -133.0078125 81.75 C-121.29799103 71.9968715 -108.85927945 63.24721648 -95.6328125 55.68066406 C-93.37645235 54.38902608 -91.12973666 53.08141641 -88.8828125 51.7734375 C-79.20658376 46.168448 -69.42946601 40.77614797 -59.5703125 35.5 C-34.25232628 22.65717701 -34.25232628 22.65717701 -11.63671875 5.765625 C-4.33916895 -0.84409366 -4.33916895 -0.84409366 0 0 Z " fill="#0B9FC6" transform="translate(835.5703125,478.5)"/>
<path d="M0 0 C1.9921875 1.48046875 1.9921875 1.48046875 3.625 3.17578125 C6.99752544 6.45429901 10.93132366 8.80283853 14.8671875 11.35546875 C16.36183904 12.35633988 17.85533696 13.358936 19.34765625 14.36328125 C38.68725169 27.63347522 38.68725169 27.63347522 59.8671875 37.35546875 C59.8671875 38.01546875 59.8671875 38.67546875 59.8671875 39.35546875 C61.53084396 39.70351482 63.19829493 40.0334649 64.8671875 40.35546875 C66.66268739 41.20255445 68.42470496 42.12260334 70.15625 43.09375 C71.17066162 43.66037354 72.18507324 44.22699707 73.23022461 44.81079102 C74.30667236 45.42365967 75.38312012 46.03652832 76.4921875 46.66796875 C77.60795166 47.29952881 78.72371582 47.93108887 79.87329102 48.58178711 C101.1370301 60.70706344 121.56583452 74.03310822 139.8671875 90.35546875 C140.40150391 90.82807129 140.93582031 91.30067383 141.48632812 91.78759766 C171.53218044 118.47423101 199.19297049 154.8616776 201.8671875 196.35546875 C202.03910627 202.36623186 201.73158575 208.25879428 201.0546875 214.23046875 C200.96703125 215.00769287 200.879375 215.78491699 200.7890625 216.58569336 C200.05963067 222.60163238 199.21664507 228.72851787 196.8671875 234.35546875 C189.58062571 237.99874964 176.20800301 235.57518992 168.75 233.390625 C153.64666522 227.96734083 138.30534043 219.79362168 126.8671875 208.35546875 C126.73214612 206.41987562 126.63517621 204.48159675 126.5546875 202.54296875 C124.72537095 177.47860174 106.96361629 155.87952158 88.9296875 139.66796875 C87.58673084 138.55019472 86.23157591 137.44697948 84.8671875 136.35546875 C84.03058594 135.6696875 83.19398438 134.98390625 82.33203125 134.27734375 C66.65656373 121.80305866 49.46210151 111.27792646 32.46557617 100.7265625 C11.39224761 87.62490964 -8.23213645 73.01928799 -27.625 57.57421875 C-28.79375785 56.64648879 -29.96302687 55.71940243 -31.1328125 54.79296875 C-31.70032227 54.34308594 -32.26783203 53.89320313 -32.85253906 53.4296875 C-37.72331656 49.60363251 -42.7475693 46.01255396 -47.8671875 42.52709961 C-49.32323399 41.5174706 -50.73340428 40.44224322 -52.1328125 39.35546875 C-52.1328125 38.69546875 -52.1328125 38.03546875 -52.1328125 37.35546875 C-50.65625 36.234375 -50.65625 36.234375 -48.5078125 34.91796875 C-39.50365414 29.1024905 -31.28461939 22.13288507 -23.00219727 15.34716797 C-20.97699155 13.69383089 -18.94076086 12.05497372 -16.90234375 10.41796875 C-14.53299548 8.51342086 -12.22569058 6.56599553 -9.95703125 4.54296875 C-3.35069016 -1.0125712 -3.35069016 -1.0125712 0 0 Z " fill="#0B9FC5" transform="translate(970.1328125,478.64453125)"/>
<path d="M0 0 C2.26171875 0.6484375 2.26171875 0.6484375 4.6875 2.375 C5.64269531 3.04660156 6.59789062 3.71820313 7.58203125 4.41015625 C8.72505025 5.26853774 9.86401851 6.13232652 11 7 C11.67853027 7.51546387 12.35706055 8.03092773 13.05615234 8.56201172 C17.68499617 12.09641118 22.26823572 15.6866824 26.83886719 19.29589844 C29.87948696 21.69349514 32.93507283 24.0710868 36 26.4375 C37.01320313 27.22125 38.02640625 28.005 39.0703125 28.8125 C42.73216268 31.54668147 46.51496443 34.0698911 50.3671875 36.52734375 C50.90601563 37.01332031 51.44484375 37.49929688 52 38 C50.92375155 41.22874535 50.47788949 41.66265782 47.859375 43.56640625 C47.20767334 44.04658203 46.55597168 44.52675781 45.88452148 45.02148438 C45.18012939 45.53001953 44.4757373 46.03855469 43.75 46.5625 C42.27687303 47.646496 40.80422269 48.73114003 39.33203125 49.81640625 C38.59678223 50.35539551 37.8615332 50.89438477 37.10400391 51.44970703 C30.02429352 56.66624926 23.10691056 62.09329682 16.26318359 67.61425781 C9.99932666 72.66610939 3.69416027 77.52287673 -3 82 C-3.88429688 82.598125 -4.76859375 83.19625 -5.6796875 83.8125 C-12.36924773 88.3084646 -19.12675565 92.69806729 -25.90991211 97.05126953 C-29.71246876 99.49561649 -33.44029946 102.00476851 -37.125 104.625 C-41.90366803 107.84782262 -46.35860984 108 -52 108 C-52.185625 108.99 -52.185625 108.99 -52.375 110 C-52.58125 110.66 -52.7875 111.32 -53 112 C-53.99 112 -54.98 112 -56 112 C-56 112.99 -56 113.98 -56 115 C-57.98 115 -59.96 115 -62 115 C-62 116.32 -62 117.64 -62 119 C-63.32 119 -64.64 119 -66 119 C-65.67 117.35 -65.34 115.7 -65 114 C-67.64 114 -70.28 114 -73 114 C-73.36263859 108.1977825 -72.25684543 104.36000789 -70 99 C-70.66 99 -71.32 99 -72 99 C-72.0928125 100.670625 -72.0928125 100.670625 -72.1875 102.375 C-72.5896875 104.169375 -72.5896875 104.169375 -73 106 C-75.32206525 106.70491267 -77.65593068 107.37212429 -80 108 C-80.82231525 111.01614295 -80.82231525 111.01614295 -81 114 C-82.485 114.495 -82.485 114.495 -84 115 C-84.144375 115.99 -84.28875 116.98 -84.4375 118 C-84.623125 118.99 -84.80875 119.98 -85 121 C-88.30618856 122.85146559 -93.30694202 122.06155097 -97 122 C-97.25 118.5625 -97.25 118.5625 -97 115 C-96.01778725 114.77966095 -96.01778725 114.77966095 -95.01573181 114.55487061 C-94.35054031 114.37176331 -93.68534882 114.18865601 -93 114 C-92.39170862 112.01196193 -92.39170862 112.01196193 -92.49829102 109.55957031 C-92.48891006 108.61478821 -92.47952911 107.6700061 -92.46986389 106.69659424 C-92.48671486 105.15295197 -92.48671486 105.15295197 -92.50390625 103.578125 C-92.50245102 102.52598816 -92.50099579 101.47385132 -92.49949646 100.38983154 C-92.50116066 98.15699505 -92.51277967 95.92414771 -92.53344727 93.69140625 C-92.56226238 90.27814676 -92.55409445 86.86645227 -92.54101562 83.453125 C-92.5472569 81.28645079 -92.55565087 79.1197815 -92.56640625 76.953125 C-92.56347061 75.93212708 -92.56053497 74.91112915 -92.55751038 73.85919189 C-92.64019271 66.95037061 -92.64019271 66.95037061 -96 61 C-95.34 60.71125 -94.68 60.4225 -94 60.125 C-93.34 59.75375 -92.68 59.3825 -92 59 C-92 58.34 -92 57.68 -92 57 C-91.071875 56.731875 -90.14375 56.46375 -89.1875 56.1875 C-85.86207804 55.35513256 -85.86207804 55.35513256 -84.828125 52.734375 C-82.18523388 48.78133273 -78.71143199 47.23388776 -74.5625 45.0625 C-73.75425781 44.62647461 -72.94601562 44.19044922 -72.11328125 43.74121094 C-66.6861327 40.83103216 -61.19064873 38.06756664 -55.66015625 35.359375 C-52.16410797 33.57284813 -48.83973602 31.55433381 -45.49609375 29.5 C-42.86857808 27.92102345 -40.19879728 26.4534897 -37.5 25 C-27.47087976 19.55242773 -18.14805438 13.41840663 -8.85546875 6.8046875 C-8.18604248 6.33047363 -7.51661621 5.85625977 -6.8269043 5.36767578 C-4.78498058 3.88834881 -4.78498058 3.88834881 -2.28125 1.484375 C-1.5284375 0.99453125 -0.775625 0.5046875 0 0 Z " fill="#0A9FC5" transform="translate(833,478)"/>
<path d="M0 0 C3.42530347 1.26645152 6.30430618 2.71845043 9.30078125 4.80078125 C10.10491455 5.35894531 10.90904785 5.91710937 11.73754883 6.4921875 C12.58728271 7.09289062 13.4370166 7.69359375 14.3125 8.3125 C15.19897217 8.93769531 16.08544434 9.56289063 16.9987793 10.20703125 C56.58726181 38.40685149 94.30728299 77.39680362 103 127 C103.94655768 133.02856151 104.09678499 138.90254583 104 145 C103.01 145 102.02 145 101 145 C101.02320313 145.85722656 101.04640625 146.71445312 101.0703125 147.59765625 C101.26826609 160.13942982 101.26826609 160.13942982 99 165 C95.71995971 166.98528754 93.89649226 167 90 167 C90 166.34 90 165.68 90 165 C89.175 165.185625 88.35 165.37125 87.5 165.5625 C83.38073281 166.0774084 80.09176645 165.63492928 76 165 C76 162.36 76 159.72 76 157 C77.32 157 78.64 157 80 157 C80 155.68 80 154.36 80 153 C78.68 153 77.36 153 76 153 C76 151.68 76 150.36 76 149 C72.04 149 68.08 149 64 149 C64 146.36 64 143.72 64 141 C62.68 141 61.36 141 60 141 C60 139.68 60 138.36 60 137 C58.68 137 57.36 137 56 137 C56 135.68 56 134.36 56 133 C57.32 133 58.64 133 60 133 C60 131.68 60 130.36 60 129 C57.36 129 54.72 129 52 129 C52 127.68 52 126.36 52 125 C50.68 125 49.36 125 48 125 C48 122.36 48 119.72 48 117 C44.37 117 40.74 117 37 117 C36.505 113.04 36.505 113.04 36 109 C34.68 109 33.36 109 32 109 C32 105.04 32 101.08 32 97 C30.68 97 29.36 97 28 97 C28 95.68 28 94.36 28 93 C26.68 93 25.36 93 24 93 C24 90.36 24 87.72 24 85 C22.68 85 21.36 85 20 85 C20 83.68 20 82.36 20 81 C18.68 81 17.36 81 16 81 C16 78.36 16 75.72 16 73 C14.68 73 13.36 73 12 73 C12 70.36 12 67.72 12 65 C10.68 65 9.36 65 8 65 C8 63.68 8 62.36 8 61 C4.04 61 0.08 61 -4 61 C-3.98952637 59.30883057 -3.97905273 57.61766113 -3.96826172 55.87524414 C-3.93606402 50.29929169 -3.91305441 44.72335256 -3.89637566 39.14733219 C-3.88592038 35.76524241 -3.87172976 32.38325281 -3.84912109 29.0012207 C-3.82331472 25.11671125 -3.81354164 21.23224293 -3.8046875 17.34765625 C-3.79436493 16.12788589 -3.78404236 14.90811554 -3.77340698 13.65138245 C-3.77325592 12.53029587 -3.77310486 11.40920929 -3.77294922 10.25415039 C-3.768508 9.26153702 -3.76406677 8.26892365 -3.75949097 7.24623108 C-3.83885895 6.50497482 -3.91822693 5.76371857 -4 5 C-4.66 4.67 -5.32 4.34 -6 4 C-4 3 -4 3 -1 3 C-0.67 2.01 -0.34 1.02 0 0 Z " fill="#12B1CF" transform="translate(1068,539)"/>
<path d="M0 0 C2.26171875 0.6484375 2.26171875 0.6484375 4.6875 2.375 C5.64269531 3.04660156 6.59789062 3.71820313 7.58203125 4.41015625 C8.72505025 5.26853774 9.86401851 6.13232652 11 7 C11.67853027 7.51546387 12.35706055 8.03092773 13.05615234 8.56201172 C17.68499617 12.09641118 22.26823572 15.6866824 26.83886719 19.29589844 C29.87948696 21.69349514 32.93507283 24.0710868 36 26.4375 C37.01320313 27.22125 38.02640625 28.005 39.0703125 28.8125 C42.73216268 31.54668147 46.51496443 34.0698911 50.3671875 36.52734375 C50.90601563 37.01332031 51.44484375 37.49929688 52 38 C50.92375155 41.22874535 50.47788949 41.66265782 47.859375 43.56640625 C47.20767334 44.04658203 46.55597168 44.52675781 45.88452148 45.02148438 C45.18012939 45.53001953 44.4757373 46.03855469 43.75 46.5625 C42.27687303 47.646496 40.80422269 48.73114003 39.33203125 49.81640625 C38.22915771 50.62489014 38.22915771 50.62489014 37.10400391 51.44970703 C28.65667254 57.67395328 20.43642491 64.19562689 12.28686523 70.80273438 C10.53539069 72.21602795 8.768487 73.60808977 7 75 C6.38608398 75.50708496 5.77216797 76.01416992 5.13964844 76.53662109 C3.3046875 77.98046875 3.3046875 77.98046875 0 80 C-2.88561108 78.95666365 -5.26951372 77.2008103 -7.7578125 75.42578125 C-8.46091553 74.92643066 -9.16401855 74.42708008 -9.88842773 73.91259766 C-10.99553101 73.12054932 -10.99553101 73.12054932 -12.125 72.3125 C-13.66013695 71.22262906 -15.1952931 70.13278517 -16.73046875 69.04296875 C-19.15147746 67.31881295 -21.57055219 65.59203654 -23.98828125 63.86328125 C-27.77932762 61.1726662 -31.58824754 58.60279401 -35.58984375 56.234375 C-41.14036505 52.92630736 -46.63536136 49.53289365 -52.125 46.125 C-53.08148437 45.53203125 -54.03796875 44.9390625 -55.0234375 44.328125 C-57.34935574 42.88605569 -59.67486969 41.44333924 -62 40 C-58.95230904 36.75171178 -55.37259466 34.80876244 -51.5 32.6875 C-50.78312012 32.28942139 -50.06624023 31.89134277 -49.32763672 31.48120117 C-45.27318038 29.23412572 -41.20116207 27.01993447 -37.125 24.8125 C-27.2352632 19.41410817 -18.02940233 13.33395959 -8.85546875 6.8046875 C-8.18604248 6.33047363 -7.51661621 5.85625977 -6.8269043 5.36767578 C-4.78498058 3.88834881 -4.78498058 3.88834881 -2.28125 1.484375 C-1.5284375 0.99453125 -0.775625 0.5046875 0 0 Z " fill="#04354C" transform="translate(833,478)"/>
<path d="M0 0 C1.9921875 1.48046875 1.9921875 1.48046875 3.625 3.17578125 C6.99752544 6.45429901 10.93132366 8.80283853 14.8671875 11.35546875 C16.36183904 12.35633988 17.85533696 13.358936 19.34765625 14.36328125 C38.68725169 27.63347522 38.68725169 27.63347522 59.8671875 37.35546875 C59.8671875 38.01546875 59.8671875 38.67546875 59.8671875 39.35546875 C57.45403975 40.8421131 55.05014449 42.20763141 52.5546875 43.54296875 C51.06779959 44.35977889 49.58212335 45.17879852 48.09765625 46 C47.36853027 46.40299316 46.6394043 46.80598633 45.88818359 47.22119141 C41.41513969 49.73167244 37.13412323 52.51276697 32.8671875 55.35546875 C32.28001953 55.74428223 31.69285156 56.1330957 31.08789062 56.53369141 C22.59537499 62.17884329 14.44886045 68.04483212 6.73925781 74.73510742 C4.9765625 76.21484375 4.9765625 76.21484375 1.8671875 78.35546875 C-2.18613966 77.84843756 -4.59769312 75.67075063 -7.7578125 73.16796875 C-8.31339844 72.73162109 -8.86898437 72.29527344 -9.44140625 71.84570312 C-10.67152385 70.87956501 -11.89961236 69.91083945 -13.12597656 68.93994141 C-16.77788102 66.05662511 -20.45799528 63.20948115 -24.1328125 60.35546875 C-25.66935006 59.1602581 -27.20580931 57.96494676 -28.7421875 56.76953125 C-30.20569182 55.6314624 -31.66923179 54.49343937 -33.1328125 53.35546875 C-33.78443359 52.84854492 -34.43605469 52.34162109 -35.10742188 51.81933594 C-36.86415023 50.45412291 -38.62306311 49.09178431 -40.3828125 47.73046875 C-41.35734375 46.97507812 -42.331875 46.2196875 -43.3359375 45.44140625 C-45.33245331 43.95238468 -47.39395424 42.54892462 -49.4921875 41.20703125 C-50.36359375 40.59601562 -51.235 39.985 -52.1328125 39.35546875 C-52.1328125 38.69546875 -52.1328125 38.03546875 -52.1328125 37.35546875 C-50.65625 36.234375 -50.65625 36.234375 -48.5078125 34.91796875 C-39.50365414 29.1024905 -31.28461939 22.13288507 -23.00219727 15.34716797 C-20.97699155 13.69383089 -18.94076086 12.05497372 -16.90234375 10.41796875 C-14.53299548 8.51342086 -12.22569058 6.56599553 -9.95703125 4.54296875 C-3.35069016 -1.0125712 -3.35069016 -1.0125712 0 0 Z " fill="#04354B" transform="translate(970.1328125,478.64453125)"/>
<path d="M0 0 C0.12375 0.66 0.2475 1.32 0.375 2 C0.684375 2.99 0.684375 2.99 1 4 C1.66 4 2.32 4 3 4 C3 14.23 3 24.46 3 35 C2.34 35 1.68 35 1 35 C1.061875 35.969375 1.12375 36.93875 1.1875 37.9375 C1.19690999 42.53898569 -0.05528953 46.84295835 -2 51 C-2.99 51.495 -2.99 51.495 -4 52 C-3.79503906 51.21496094 -3.59007812 50.42992187 -3.37890625 49.62109375 C-3.10949219 48.57050781 -2.84007812 47.51992188 -2.5625 46.4375 C-2.29566406 45.40496094 -2.02882813 44.37242187 -1.75390625 43.30859375 C-0.36717348 37.22277689 0.14454141 31.32661266 0.09765625 25.09765625 C0.09553383 24.01380898 0.09553383 24.01380898 0.09336853 22.9080658 C0.08782225 20.62616635 0.0752802 18.34436921 0.0625 16.0625 C0.05747804 14.50455872 0.05291636 12.94661588 0.04882812 11.38867188 C0.0378705 7.59240919 0.02064372 3.79622187 0 0 Z " fill="#FDE8BD" transform="translate(1170,335)"/>
</svg>